RobotoDelta-XOPQmin-YOPQmin.ufo
<glyph name="numbersign" format="1">
  <advance width="1364"/>
  <unicode hex="0023"/>
  <outline>
    <contour>
      <point x="216" y="-20" type="line"/>
      <point x="270" y="-20" type="line"/>
      <point x="732" y="1476" type="line"/>
      <point x="678" y="1476" type="line"/>
    </contour>
    <contour>
      <point x="632" y="-20" type="line"/>
      <point x="686" y="-20" type="line"/>
      <point x="1148" y="1476" type="line"/>
      <point x="1094" y="1476" type="line"/>
    </contour>
    <contour>
      <point x="64" y="458" type="line"/>
      <point x="1225" y="458" type="line"/>
      <point x="1225" y="512" type="line"/>
      <point x="64" y="512" type="line"/>
    </contour>
    <contour>
      <point x="140" y="944" type="line"/>
      <point x="1300" y="944" type="line"/>
      <point x="1300" y="998" type="line"/>
      <point x="140" y="998" type="line"/>
    </contour>
  </outline>
</glyph>
<glyph name="dollar" format="1">
  <advance width="1178"/>
  <unicode hex="0024"/>
  <outline>
    <contour>
      <point x="90" y="411" type="line" smooth="yes"/>
      <point x="90" y="221"/>
      <point x="368" y="0"/>
      <point x="599" y="0" type="qcurve" smooth="yes"/>
      <point x="829" y="0"/>
      <point x="1098" y="221"/>
      <point x="1098" y="394" type="qcurve" smooth="yes"/>
      <point x="1098" y="567"/>
      <point x="894" y="757"/>
      <point x="670" y="820" type="qcurve" smooth="yes"/>
      <point x="445" y="884"/>
      <point x="301" y="989"/>
      <point x="301" y="1076" type="qcurve" smooth="yes"/>
      <point x="301" y="1181"/>
      <point x="441" y="1298"/>
      <point x="589" y="1298" type="qcurve" smooth="yes"/>
      <point x="737" y="1298"/>
      <point x="887" y="1162"/>
      <point x="887" y="1051" type="qcurve" smooth="yes"/>
      <point x="887" y="1039" type="line"/>
      <point x="1071" y="1039" type="line"/>
      <point x="1071" y="1051" type="line" smooth="yes"/>
      <point x="1071" y="1220"/>
      <point x="810" y="1456"/>
      <point x="589" y="1456" type="qcurve" smooth="yes"/>
      <point x="368" y="1456"/>
      <point x="119" y="1239"/>
      <point x="119" y="1076" type="qcurve" smooth="yes"/>
      <point x="119" y="912"/>
      <point x="309" y="734"/>
      <point x="537" y="668" type="qcurve" smooth="yes"/>
      <point x="766" y="603"/>
      <point x="916" y="490"/>
      <point x="916" y="394" type="qcurve" smooth="yes"/>
      <point x="916" y="288"/>
      <point x="752" y="158"/>
      <point x="599" y="158" type="qcurve" smooth="yes"/>
      <point x="445" y="158"/>
      <point x="274" y="284"/>
      <point x="274" y="411" type="qcurve" smooth="yes"/>
      <point x="274" y="423" type="line"/>
      <point x="90" y="423" type="line"/>
    </contour>
    <contour>
      <point x="524" y="-150" type="line"/>
      <point x="674" y="-150" type="line"/>
      <point x="674" y="90" type="line"/>
      <point x="664" y="100" type="line"/>
      <point x="664" y="728" type="line"/>
      <point x="524" y="728" type="line"/>
    </contour>
    <contour>
      <point x="534" y="728" type="line"/>
      <point x="674" y="728" type="line"/>
      <point x="674" y="1606" type="line"/>
      <point x="524" y="1606" type="line"/>
      <point x="524" y="1366" type="line"/>
      <point x="534" y="1356" type="line"/>
    </contour>
  </outline>
</glyph>
<glyph name="percent" format="1">
  <advance width="1345"/>
  <unicode hex="0025"/>
  <outline>
    <contour>
      <point x="70" y="1016" type="line" smooth="yes"/>
      <point x="70" y="856"/>
      <point x="170" y="660"/>
      <point x="280" y="660" type="qcurve" smooth="yes"/>
      <point x="390" y="660"/>
      <point x="490" y="856"/>
      <point x="490" y="1016" type="qcurve" smooth="yes"/>
      <point x="490" y="1120" type="line" smooth="yes"/>
      <point x="490" y="1280"/>
      <point x="390" y="1476"/>
      <point x="280" y="1476" type="qcurve" smooth="yes"/>
      <point x="170" y="1476"/>
      <point x="70" y="1280"/>
      <point x="70" y="1120" type="qcurve" smooth="yes"/>
    </contour>
    <contour>
      <point x="120" y="1016" type="qcurve" smooth="yes"/>
      <point x="120" y="1120" type="line" smooth="yes"/>
      <point x="120" y="1255"/>
      <point x="190" y="1428"/>
      <point x="280" y="1428" type="qcurve" smooth="yes"/>
      <point x="370" y="1428"/>
      <point x="440" y="1255"/>
      <point x="440" y="1120" type="qcurve" smooth="yes"/>
      <point x="440" y="1016" type="line" smooth="yes"/>
      <point x="440" y="881"/>
      <point x="370" y="708"/>
      <point x="280" y="708" type="qcurve" smooth="yes"/>
      <point x="190" y="708"/>
      <point x="120" y="881"/>
    </contour>
    <contour>
      <point x="205" y="28" type="line"/>
      <point x="249" y="0" type="line"/>
      <point x="1140" y="1428" type="line"/>
      <point x="1096" y="1456" type="line"/>
    </contour>
    <contour>
      <point x="855" y="336" type="line" smooth="yes"/>
      <point x="855" y="176"/>
      <point x="955" y="-20"/>
      <point x="1065" y="-20" type="qcurve" smooth="yes"/>
      <point x="1175" y="-20"/>
      <point x="1275" y="176"/>
      <point x="1275" y="336" type="qcurve" smooth="yes"/>
      <point x="1275" y="440" type="line" smooth="yes"/>
      <point x="1275" y="600"/>
      <point x="1175" y="796"/>
      <point x="1065" y="796" type="qcurve" smooth="yes"/>
      <point x="955" y="796"/>
      <point x="855" y="600"/>
      <point x="855" y="440" type="qcurve" smooth="yes"/>
    </contour>
    <contour>
      <point x="905" y="336" type="qcurve" smooth="yes"/>
      <point x="905" y="440" type="line" smooth="yes"/>
      <point x="905" y="575"/>
      <point x="975" y="748"/>
      <point x="1065" y="748" type="qcurve" smooth="yes"/>
      <point x="1155" y="748"/>
      <point x="1225" y="575"/>
      <point x="1225" y="440" type="qcurve" smooth="yes"/>
      <point x="1225" y="336" type="line" smooth="yes"/>
      <point x="1225" y="201"/>
      <point x="1155" y="28"/>
      <point x="1065" y="28" type="qcurve" smooth="yes"/>
      <point x="975" y="28"/>
      <point x="905" y="201"/>
    </contour>
  </outline>
</glyph>
<glyph name="ampersand" format="1">
  <advance width="1274"/>
  <unicode hex="0026"/>
  <outline>
    <contour>
      <point x="102" y="392" type="qcurve" smooth="yes"/>
      <point x="102" y="529"/>
      <point x="276" y="715"/>
      <point x="410" y="808" type="qcurve" smooth="yes"/>
      <point x="628" y="963" type="line" smooth="yes"/>
      <point x="690" y="1007"/>
      <point x="760" y="1094"/>
      <point x="760" y="1169" type="qcurve" smooth="yes"/>
      <point x="760" y="1228"/>
      <point x="668" y="1325"/>
      <point x="584" y="1325" type="qcurve" smooth="yes"/>
      <point x="497" y="1325"/>
      <point x="406" y="1207"/>
      <point x="406" y="1129" type="qcurve" smooth="yes"/>
      <point x="406" y="1061"/>
      <point x="503" y="912"/>
      <point x="578" y="826" type="qcurve" smooth="yes"/>
      <point x="1267" y="0" type="line"/>
      <point x="1045" y="0" type="line"/>
      <point x="480" y="676" type="line" smooth="yes"/>
      <point x="367" y="807"/>
      <point x="220" y="1012"/>
      <point x="220" y="1123" type="qcurve" smooth="yes"/>
      <point x="220" y="1292"/>
      <point x="421" y="1476"/>
      <point x="585" y="1476" type="qcurve" smooth="yes"/>
      <point x="745" y="1476"/>
      <point x="931" y="1292"/>
      <point x="931" y="1169" type="qcurve" smooth="yes"/>
      <point x="931" y="1064"/>
      <point x="820" y="917"/>
      <point x="733" y="852" type="qcurve" smooth="yes"/>
      <point x="444" y="637" type="line" smooth="yes"/>
      <point x="337" y="558"/>
      <point x="287" y="424"/>
      <point x="287" y="392" type="qcurve" smooth="yes"/>
      <point x="287" y="286"/>
      <point x="428" y="132"/>
      <point x="572" y="132" type="qcurve" smooth="yes"/>
      <point x="739" y="132"/>
      <point x="1016" y="431"/>
      <point x="1016" y="672" type="qcurve"/>
      <point x="1182" y="672" type="line"/>
      <point x="1182" y="524"/>
      <point x="1095" y="276"/>
      <point x="1004" y="184" type="qcurve" smooth="yes"/>
      <point x="995" y="175"/>
      <point x="985" y="151"/>
      <point x="976" y="142" type="qcurve" smooth="yes"/>
      <point x="901" y="61"/>
      <point x="681" y="-20"/>
      <point x="572" y="-20" type="qcurve" smooth="yes"/>
      <point x="356" y="-20"/>
      <point x="102" y="213"/>
    </contour>
  </outline>
</glyph>
<glyph name="parenleft" format="1">
  <advance width="560"/>
  <unicode hex="0028"/>
  <outline>
    <contour>
      <point x="524" y="-436" type="qcurve"/>
      <point x="524" y="-386" type="line"/>
      <point x="390" y="-310"/>
      <point x="179" y="120"/>
      <point x="179" y="508" type="qcurve" smooth="yes"/>
      <point x="179" y="532" type="line" smooth="yes"/>
      <point x="179" y="920"/>
      <point x="390" y="1350"/>
      <point x="524" y="1426" type="qcurve"/>
      <point x="524" y="1476" type="line"/>
      <point x="360" y="1400"/>
      <point x="124" y="920"/>
      <point x="124" y="525" type="qcurve" smooth="yes"/>
      <point x="124" y="515" type="line" smooth="yes"/>
      <point x="124" y="120"/>
      <point x="360" y="-360"/>
    </contour>
  </outline>
</glyph>
<glyph name="asterisk" format="1">
  <advance width="1036"/>
  <unicode hex="002A"/>
  <outline>
    <contour>
      <point x="58" y="1123" type="line"/>
      <point x="485" y="989" type="line"/>
      <point x="218" y="630" type="line"/>
      <point x="258" y="600" type="line"/>
      <point x="518" y="966" type="line"/>
      <point x="778" y="600" type="line"/>
      <point x="818" y="630" type="line"/>
      <point x="551" y="989" type="line"/>
      <point x="978" y="1123" type="line"/>
      <point x="963" y="1171" type="line"/>
      <point x="538" y="1028" type="line"/>
      <point x="543" y="1476" type="line"/>
      <point x="493" y="1476" type="line"/>
      <point x="498" y="1028" type="line"/>
      <point x="73" y="1171" type="line"/>
    </contour>
  </outline>
</glyph>
<glyph name="comma" format="1">
  <advance width="580"/>
  <unicode hex="002C"/>
  <outline>
    <contour>
      <point x="99" y="-218" type="line"/>
      <point x="146" y="-152"/>
      <point x="198" y="-13"/>
      <point x="198" y="68" type="qcurve" smooth="yes"/>
      <point x="198" y="220" type="line"/>
      <point x="379" y="220" type="line"/>
      <point x="379" y="71" type="line" smooth="yes"/>
      <point x="379" y="-19"/>
      <point x="287" y="-223"/>
      <point x="204" y="-291" type="qcurve"/>
    </contour>
  </outline>
</glyph>
<glyph name="three" format="1">
  <advance width="895"/>
  <unicode hex="0033"/>
  <outline>
    <contour>
      <point x="79" y="386" type="line" smooth="yes"/>
      <point x="79" y="176"/>
      <point x="272" y="-30"/>
      <point x="429" y="-30" type="qcurve" smooth="yes"/>
      <point x="586" y="-30"/>
      <point x="777" y="181"/>
      <point x="777" y="404" type="qcurve" smooth="yes"/>
      <point x="777" y="572"/>
      <point x="638" y="739"/>
      <point x="538" y="766" type="qcurve"/>
      <point x="538" y="766" type="line"/>
      <point x="641" y="813"/>
      <point x="723" y="976"/>
      <point x="723" y="1101" type="qcurve" smooth="yes"/>
      <point x="723" y="1296"/>
      <point x="570" y="1479"/>
      <point x="431" y="1479" type="qcurve" smooth="yes"/>
      <point x="292" y="1479"/>
      <point x="131" y="1271"/>
      <point x="124" y="1094" type="qcurve"/>
      <point x="124" y="1085" type="line"/>
      <point x="175" y="1085" type="line"/>
      <point x="175" y="1119" type="line" smooth="yes"/>
      <point x="175" y="1275"/>
      <point x="325" y="1427"/>
      <point x="432" y="1427" type="qcurve" smooth="yes"/>
      <point x="557" y="1427"/>
      <point x="678" y="1277"/>
      <point x="678" y="1105" type="qcurve" smooth="yes"/>
      <point x="678" y="934"/>
      <point x="514" y="788"/>
      <point x="385" y="788" type="qcurve" smooth="yes"/>
      <point x="278" y="788" type="line"/>
      <point x="278" y="734" type="line"/>
      <point x="395" y="734" type="line" smooth="yes"/>
      <point x="564" y="734"/>
      <point x="726" y="571"/>
      <point x="726" y="374" type="qcurve" smooth="yes"/>
      <point x="726" y="185"/>
      <point x="569" y="22"/>
      <point x="429" y="22" type="qcurve" smooth="yes"/>
      <point x="288" y="22"/>
      <point x="133" y="185"/>
      <point x="133" y="330" type="qcurve" smooth="yes"/>
      <point x="133" y="393" type="line"/>
      <point x="79" y="393" type="line"/>
    </contour>
  </outline>
</glyph>
<glyph name="six" format="1">
  <advance width="893"/>
  <unicode hex="0036"/>
  <outline>
    <contour>
      <point x="89" y="627" type="line" smooth="yes"/>
      <point x="89" y="241"/>
      <point x="336" y="-30"/>
      <point x="470" y="-30" type="qcurve" smooth="yes"/>
      <point x="615" y="-30"/>
      <point x="820" y="248"/>
      <point x="820" y="475" type="qcurve" smooth="yes"/>
      <point x="820" y="703"/>
      <point x="624" y="926"/>
      <point x="514" y="926" type="qcurve" smooth="yes"/>
      <point x="377" y="926"/>
      <point x="158" y="761"/>
      <point x="120" y="676" type="qcurve"/>
      <point x="132" y="541" type="line"/>
      <point x="162" y="680"/>
      <point x="360" y="864"/>
      <point x="486" y="864" type="qcurve" smooth="yes"/>
      <point x="625" y="864"/>
      <point x="765" y="658"/>
      <point x="765" y="446" type="qcurve" smooth="yes"/>
      <point x="765" y="241"/>
      <point x="600" y="20"/>
      <point x="467" y="20" type="qcurve" smooth="yes"/>
      <point x="318" y="20"/>
      <point x="144" y="258"/>
      <point x="144" y="602" type="qcurve" smooth="yes"/>
      <point x="144" y="652" type="line" smooth="yes"/>
      <point x="144" y="1042"/>
      <point x="444" y="1422"/>
      <point x="656" y="1422" type="qcurve" smooth="yes"/>
      <point x="720" y="1422" type="line"/>
      <point x="720" y="1478" type="line"/>
      <point x="687" y="1478" type="line" smooth="yes"/>
      <point x="413" y="1478"/>
      <point x="89" y="1057"/>
      <point x="89" y="644" type="qcurve" smooth="yes"/>
    </contour>
  </outline>
</glyph>
<glyph name="nine" format="1">
  <advance width="1156"/>
  <unicode hex="0039"/>
  <outline>
    <contour>
      <point x="208" y="1002" type="qcurve" smooth="yes"/>
      <point x="208" y="804"/>
      <point x="391.0" y="560.0"/>
      <point x="546" y="560" type="qcurve" smooth="yes"/>
      <point x="701.0" y="560.0"/>
      <point x="916.0" y="810.3362831858407"/>
      <point x="916" y="1002" type="qcurve"/>
      <point x="886" y="1002" type="line"/>
      <point x="886.0" y="840.1293532338309"/>
      <point x="686.0" y="610.0"/>
      <point x="556" y="610" type="qcurve" smooth="yes"/>
      <point x="416.0" y="610.0"/>
      <point x="262.0" y="813.8009950248756"/>
      <point x="262" y="1002" type="qcurve" smooth="yes"/>
      <point x="262.0" y="1208.2477477477478"/>
      <point x="416.0" y="1436.0"/>
      <point x="556" y="1436" type="qcurve" smooth="yes"/>
      <point x="696" y="1436"/>
      <point x="880" y="1171"/>
      <point x="880" y="852" type="qcurve" smooth="yes"/>
      <point x="880" y="802" type="line" smooth="yes"/>
      <point x="880" y="436"/>
      <point x="606" y="20"/>
      <point x="376" y="20" type="qcurve" smooth="yes"/>
      <point x="356" y="20" type="line"/>
      <point x="356" y="-30" type="line"/>
      <point x="376" y="-30" type="line" smooth="yes"/>
      <point x="636" y="-30"/>
      <point x="934" y="426"/>
      <point x="934" y="812" type="qcurve" smooth="yes"/>
      <point x="934" y="842" type="line" smooth="yes"/>
      <point x="934" y="1182"/>
      <point x="711" y="1486"/>
      <point x="556" y="1486" type="qcurve" smooth="yes"/>
      <point x="401.0" y="1486.0"/>
      <point x="208" y="1218"/>
    </contour>
  </outline>
</glyph>
<glyph name="colon" format="1">
  <advance width="456"/>
  <unicode hex="003A"/>
  <outline>
    <contour>
      <point x="176" y="53" type="qcurve" smooth="yes"/>
      <point x="176" y="22"/>
      <point x="203" y="-22"/>
      <point x="228" y="-22" type="qcurve" smooth="yes"/>
      <point x="253" y="-22"/>
      <point x="280" y="22"/>
      <point x="280" y="53" type="qcurve" smooth="yes"/>
      <point x="280" y="84"/>
      <point x="253" y="128"/>
      <point x="228" y="128" type="qcurve" smooth="yes"/>
      <point x="203" y="128"/>
      <point x="176" y="84"/>
    </contour>
    <contour>
      <point x="176" y="993" type="qcurve" smooth="yes"/>
      <point x="176" y="962"/>
      <point x="203" y="918"/>
      <point x="228" y="918" type="qcurve" smooth="yes"/>
      <point x="253" y="918"/>
      <point x="280" y="962"/>
      <point x="280" y="993" type="qcurve" smooth="yes"/>
      <point x="280" y="1024"/>
      <point x="253" y="1068"/>
      <point x="228" y="1068" type="qcurve" smooth="yes"/>
      <point x="203" y="1068"/>
      <point x="176" y="1024"/>
    </contour>
  </outline>
</glyph>
<glyph name="semicolon" format="1">
  <advance width="456"/>
  <unicode hex="003B"/>
  <outline>
    <contour>
      <point x="166" y="-132" type="qcurve"/>
      <point x="216" y="-160" type="line"/>
      <point x="248" y="-120"/>
      <point x="282" y="-24"/>
      <point x="282" y="42" type="qcurve" smooth="yes"/>
      <point x="282" y="132" type="line"/>
      <point x="210" y="132" type="line"/>
      <point x="210" y="42" type="line" smooth="yes"/>
      <point x="210" y="-12"/>
      <point x="188" y="-94"/>
    </contour>
    <contour>
      <point x="176" y="993" type="qcurve" smooth="yes"/>
      <point x="176" y="962"/>
      <point x="203" y="918"/>
      <point x="228" y="918" type="qcurve" smooth="yes"/>
      <point x="253" y="918"/>
      <point x="280" y="962"/>
      <point x="280" y="993" type="qcurve" smooth="yes"/>
      <point x="280" y="1024"/>
      <point x="253" y="1068"/>
      <point x="228" y="1068" type="qcurve" smooth="yes"/>
      <point x="203" y="1068"/>
      <point x="176" y="1024"/>
    </contour>
  </outline>
</glyph>
<glyph name="equal" format="1">
  <advance width="1170"/>
  <unicode hex="003D"/>
  <outline>
    <contour>
      <point x="213" y="454" type="line"/>
      <point x="957" y="454" type="line"/>
      <point x="957" y="504" type="line"/>
      <point x="213" y="504" type="line"/>
    </contour>
    <contour>
      <point x="213" y="844" type="line"/>
      <point x="957" y="844" type="line"/>
      <point x="957" y="894" type="line"/>
      <point x="213" y="894" type="line"/>
    </contour>
  </outline>
</glyph>
<glyph name="at" format="1">
  <advance width="1848"/>
  <unicode hex="0040"/>
  <outline>
    <contour>
      <point x="619" y="400" type="qcurve" smooth="yes"/>
      <point x="619" y="220"/>
      <point x="732" y="0"/>
      <point x="828" y="0" type="qcurve" smooth="yes"/>
      <point x="898" y="0"/>
      <point x="1010" y="103"/>
      <point x="1038" y="190" type="qcurve"/>
      <point x="1068" y="101"/>
      <point x="1218" y="0"/>
      <point x="1328" y="0" type="qcurve" smooth="yes"/>
      <point x="1498" y="0"/>
      <point x="1734" y="360"/>
      <point x="1734" y="650" type="qcurve" smooth="yes"/>
      <point x="1734" y="1000"/>
      <point x="1320" y="1486"/>
      <point x="968" y="1486" type="qcurve" smooth="yes"/>
      <point x="612" y="1486"/>
      <point x="114" y="880"/>
      <point x="114" y="460" type="qcurve" smooth="yes"/>
      <point x="114" y="40"/>
      <point x="552" y="-446"/>
      <point x="868" y="-446" type="qcurve" smooth="yes"/>
      <point x="1008" y="-446"/>
      <point x="1198" y="-400"/>
      <point x="1268" y="-356" type="qcurve"/>
      <point x="1268" y="-306" type="line"/>
      <point x="1202" y="-342"/>
      <point x="1008" y="-396"/>
      <point x="868" y="-396" type="qcurve" smooth="yes"/>
      <point x="568" y="-396"/>
      <point x="168" y="49"/>
      <point x="168" y="460" type="qcurve" smooth="yes"/>
      <point x="168" y="864"/>
      <point x="628" y="1436"/>
      <point x="968" y="1436" type="qcurve" smooth="yes"/>
      <point x="1308" y="1436"/>
      <point x="1684" y="962"/>
      <point x="1684" y="650" type="qcurve" smooth="yes"/>
      <point x="1684" y="382"/>
      <point x="1486" y="50"/>
      <point x="1328" y="50" type="qcurve" smooth="yes"/>
      <point x="1208" y="50"/>
      <point x="1062" y="180"/>
      <point x="1096" y="350" type="qcurve" smooth="yes"/>
      <point x="1216" y="946" type="line"/>
      <point x="1216" y="946" type="line"/>
      <point x="1188" y="978"/>
      <point x="1073" y="1052"/>
      <point x="1008" y="1052" type="qcurve" smooth="yes"/>
      <point x="845" y="1052"/>
      <point x="619" y="680"/>
    </contour>
    <contour>
      <point x="673" y="400" type="qcurve" smooth="yes"/>
      <point x="673" y="659"/>
      <point x="868" y="1002"/>
      <point x="1017" y="1002" type="qcurve" smooth="yes"/>
      <point x="1056" y="1002"/>
      <point x="1138" y="965"/>
      <point x="1163" y="940" type="qcurve"/>
      <point x="1048" y="390" type="line" smooth="yes"/>
      <point x="1009" y="204"/>
      <point x="908" y="50"/>
      <point x="838" y="50" type="qcurve" smooth="yes"/>
      <point x="758" y="50"/>
      <point x="673" y="228"/>
    </contour>
  </outline>
</glyph>
<glyph name="A" format="1">
  <advance width="1040"/>
  <unicode hex="0041"/>
  <outline>
    <contour>
      <point x="0" y="0" type="line"/>
      <point x="54" y="0" type="line"/>
      <point x="476" y="1288" type="line" smooth="yes"/>
      <point x="487" y="1320"/>
      <point x="506" y="1383"/>
      <point x="513" y="1416" type="qcurve"/>
      <point x="523" y="1416" type="line"/>
      <point x="530" y="1383"/>
      <point x="549" y="1320"/>
      <point x="560" y="1288" type="qcurve" smooth="yes"/>
      <point x="982" y="0" type="line"/>
      <point x="1040" y="0" type="line"/>
      <point x="552" y="1466" type="line"/>
      <point x="488" y="1466" type="line"/>
    </contour>
    <contour>
      <point x="173" y="440" type="line"/>
      <point x="865" y="440" type="line"/>
      <point x="849" y="490" type="line"/>
      <point x="189" y="490" type="line"/>
    </contour>
    <contour>
      <point x="520.0" y="1432.0" type="move" name="top"/>
    </contour>
  </outline>
</glyph>
<glyph name="C" format="1">
  <advance width="1049"/>
  <unicode hex="0043"/>
  <outline>
    <contour>
      <point x="115" y="682" type="qcurve" smooth="yes"/>
      <point x="115" y="774" type="line" smooth="yes"/>
      <point x="115" y="1110"/>
      <point x="381" y="1486"/>
      <point x="581" y="1486" type="qcurve" smooth="yes"/>
      <point x="777" y="1486"/>
      <point x="978" y="1200"/>
      <point x="998" y="1000" type="qcurve" smooth="yes"/>
      <point x="999" y="990" type="line"/>
      <point x="944" y="990" type="line"/>
      <point x="943" y="1000" type="line" smooth="yes"/>
      <point x="927" y="1162"/>
      <point x="761" y="1436"/>
      <point x="581" y="1436" type="qcurve" smooth="yes"/>
      <point x="401" y="1436"/>
      <point x="170" y="1084"/>
      <point x="170" y="774" type="qcurve" smooth="yes"/>
      <point x="170" y="682" type="line" smooth="yes"/>
      <point x="170" y="372"/>
      <point x="401" y="20"/>
      <point x="581" y="20" type="qcurve" smooth="yes"/>
      <point x="761" y="20"/>
      <point x="927" y="294"/>
      <point x="943" y="456" type="qcurve" smooth="yes"/>
      <point x="944" y="466" type="line"/>
      <point x="999" y="466" type="line"/>
      <point x="998" y="456" type="line" smooth="yes"/>
      <point x="978" y="256"/>
      <point x="777" y="-30"/>
      <point x="581" y="-30" type="qcurve" smooth="yes"/>
      <point x="381" y="-30"/>
      <point x="115" y="346"/>
    </contour>
    <contour>
      <point x="581" y="0" type="move" name="bottom"/>
    </contour>
  </outline>
</glyph>
<glyph name="D" format="1">
  <advance width="1093"/>
  <unicode hex="0044"/>
  <outline>
    <contour>
      <point x="170" y="0" type="line"/>
      <point x="464" y="0" type="line" smooth="yes"/>
      <point x="694" y="0"/>
      <point x="978" y="366"/>
      <point x="978" y="682" type="qcurve" smooth="yes"/>
      <point x="978" y="774" type="line" smooth="yes"/>
      <point x="978" y="1090"/>
      <point x="694" y="1456"/>
      <point x="464" y="1456" type="qcurve" smooth="yes"/>
      <point x="170" y="1456" type="line"/>
    </contour>
    <contour>
      <point x="224" y="50" type="line"/>
      <point x="224" y="1406" type="line"/>
      <point x="464" y="1406" type="line" smooth="yes"/>
      <point x="674" y="1406"/>
      <point x="923" y="1070"/>
      <point x="923" y="774" type="qcurve" smooth="yes"/>
      <point x="923" y="682" type="line" smooth="yes"/>
      <point x="923" y="386"/>
      <point x="674" y="50"/>
      <point x="464" y="50" type="qcurve" smooth="yes"/>
    </contour>
  </outline>
</glyph>
<glyph name="H" format="1">
  <advance width="1182"/>
  <unicode hex="0048"/>
  <outline>
    <contour>
      <point x="170" y="0" type="line"/>
      <point x="224" y="0" type="line"/>
      <point x="224" y="726" type="line"/>
      <point x="958" y="726" type="line"/>
      <point x="958" y="0" type="line"/>
      <point x="1012" y="0" type="line"/>
      <point x="1012" y="1456" type="line"/>
      <point x="958" y="1456" type="line"/>
      <point x="958" y="776" type="line"/>
      <point x="224" y="776" type="line"/>
      <point x="224" y="1456" type="line"/>
      <point x="170" y="1456" type="line"/>
    </contour>
  </outline>
</glyph>
<glyph name="J" format="1">
  <advance width="825"/>
  <unicode hex="004A"/>
  <outline>
    <contour>
      <point x="25" y="400" type="qcurve" smooth="yes"/>
      <point x="25" y="410" type="line"/>
      <point x="80" y="410" type="line"/>
      <point x="80" y="400" type="line" smooth="yes"/>
      <point x="80" y="214"/>
      <point x="224" y="20"/>
      <point x="348" y="20" type="qcurve" smooth="yes"/>
      <point x="472" y="20"/>
      <point x="616" y="230"/>
      <point x="616" y="425" type="qcurve" smooth="yes"/>
      <point x="616" y="1456" type="line"/>
      <point x="670" y="1456" type="line"/>
      <point x="670" y="425" type="line" smooth="yes"/>
      <point x="670" y="214"/>
      <point x="492" y="-30"/>
      <point x="348" y="-30" type="qcurve" smooth="yes"/>
      <point x="204" y="-30"/>
      <point x="25" y="200"/>
    </contour>
  </outline>
</glyph>
<glyph name="K" format="1">
  <advance width="1020"/>
  <unicode hex="004B"/>
  <outline>
    <contour>
      <point x="170" y="0" type="line"/>
      <point x="224" y="0" type="line"/>
      <point x="224" y="586" type="line"/>
      <point x="1024" y="1456" type="line"/>
      <point x="954" y="1456" type="line"/>
      <point x="224" y="658" type="line"/>
      <point x="224" y="1456" type="line"/>
      <point x="170" y="1456" type="line"/>
    </contour>
    <contour>
      <point x="972" y="0" type="line"/>
      <point x="1040" y="0" type="line"/>
      <point x="416" y="830" type="line"/>
      <point x="380" y="792" type="line"/>
    </contour>
  </outline>
</glyph>
<glyph name="O" format="1">
  <advance width="1182"/>
  <unicode hex="004F"/>
  <outline>
    <contour>
      <point x="115" y="682" type="line" smooth="yes"/>
      <point x="115" y="346"/>
      <point x="381" y="-30"/>
      <point x="591" y="-30" type="qcurve" smooth="yes"/>
      <point x="801" y="-30"/>
      <point x="1067" y="346"/>
      <point x="1067" y="682" type="qcurve" smooth="yes"/>
      <point x="1067" y="774" type="line" smooth="yes"/>
      <point x="1067" y="1110"/>
      <point x="801" y="1486"/>
      <point x="591" y="1486" type="qcurve" smooth="yes"/>
      <point x="381" y="1486"/>
      <point x="115" y="1110"/>
      <point x="115" y="774" type="qcurve" smooth="yes"/>
    </contour>
    <contour>
      <point x="170" y="682" type="qcurve" smooth="yes"/>
      <point x="170" y="774" type="line" smooth="yes"/>
      <point x="170" y="1090"/>
      <point x="403" y="1436"/>
      <point x="591" y="1436" type="qcurve" smooth="yes"/>
      <point x="779" y="1436"/>
      <point x="1012" y="1090"/>
      <point x="1012" y="774" type="qcurve" smooth="yes"/>
      <point x="1012" y="682" type="line" smooth="yes"/>
      <point x="1012" y="366"/>
      <point x="779" y="20"/>
      <point x="591" y="20" type="qcurve" smooth="yes"/>
      <point x="403" y="20"/>
      <point x="170" y="366"/>
    </contour>
  </outline>
</glyph>
<glyph name="Q" format="1">
  <advance width="1182"/>
  <unicode hex="0051"/>
  <outline>
    <contour>
      <point x="115" y="682" type="line" smooth="yes"/>
      <point x="115" y="346"/>
      <point x="381" y="-30"/>
      <point x="591" y="-30" type="qcurve" smooth="yes"/>
      <point x="801" y="-30"/>
      <point x="1067" y="346"/>
      <point x="1067" y="682" type="qcurve" smooth="yes"/>
      <point x="1067" y="774" type="line" smooth="yes"/>
      <point x="1067" y="1110"/>
      <point x="801" y="1486"/>
      <point x="591" y="1486" type="qcurve" smooth="yes"/>
      <point x="381" y="1486"/>
      <point x="115" y="1110"/>
      <point x="115" y="774" type="qcurve" smooth="yes"/>
    </contour>
    <contour>
      <point x="170" y="682" type="qcurve" smooth="yes"/>
      <point x="170" y="774" type="line" smooth="yes"/>
      <point x="170" y="1090"/>
      <point x="403" y="1436"/>
      <point x="591" y="1436" type="qcurve" smooth="yes"/>
      <point x="779" y="1436"/>
      <point x="1012" y="1090"/>
      <point x="1012" y="774" type="qcurve" smooth="yes"/>
      <point x="1012" y="682" type="line" smooth="yes"/>
      <point x="1012" y="366"/>
      <point x="779" y="20"/>
      <point x="591" y="20" type="qcurve" smooth="yes"/>
      <point x="403" y="20"/>
      <point x="170" y="366"/>
    </contour>
    <contour>
      <point x="1100" y="-210" type="line"/>
      <point x="1136" y="-174" type="line"/>
      <point x="596" y="336" type="line"/>
      <point x="560" y="300" type="line"/>
    </contour>
  </outline>
</glyph>
<glyph name="W" format="1">
  <advance width="1594"/>
  <unicode hex="0057"/>
  <outline>
    <contour>
      <point x="396" y="-10" type="line"/>
      <point x="50" y="1456" type="line"/>
      <point x="106" y="1456" type="line"/>
      <point x="402" y="188" type="line" smooth="yes"/>
      <point x="410" y="154"/>
      <point x="417" y="93"/>
      <point x="420" y="60" type="qcurve"/>
      <point x="426" y="60" type="line"/>
      <point x="429" y="93"/>
      <point x="435" y="154"/>
      <point x="444" y="188" type="qcurve" smooth="yes"/>
      <point x="772" y="1456" type="line"/>
      <point x="826" y="1456" type="line"/>
      <point x="1154" y="188" type="line" smooth="yes"/>
      <point x="1163" y="154"/>
      <point x="1169" y="93"/>
      <point x="1172" y="60" type="qcurve"/>
      <point x="1178" y="60" type="line"/>
      <point x="1181" y="93"/>
      <point x="1188" y="154"/>
      <point x="1196" y="188" type="qcurve" smooth="yes"/>
      <point x="1492" y="1456" type="line"/>
      <point x="1544" y="1456" type="line"/>
      <point x="1198" y="-10" type="line"/>
      <point x="1154" y="-10" type="line"/>
      <point x="820" y="1262" type="line" smooth="yes"/>
      <point x="811" y="1296"/>
      <point x="802" y="1357"/>
      <point x="799" y="1390" type="qcurve"/>
      <point x="795" y="1390" type="line"/>
      <point x="792" y="1357"/>
      <point x="783" y="1296"/>
      <point x="774" y="1262" type="qcurve" smooth="yes"/>
      <point x="440" y="-10" type="line"/>
    </contour>
  </outline>
</glyph>
<glyph name="X" format="1">
  <advance width="1074"/>
  <unicode hex="0058"/>
  <outline>
    <contour>
      <point x="25" y="0" type="line"/>
      <point x="523" y="763" type="line"/>
      <point x="527" y="763" type="line"/>
      <point x="964" y="1456" type="line"/>
      <point x="1024" y="1456" type="line"/>
      <point x="552" y="713" type="line"/>
      <point x="548" y="713" type="line"/>
      <point x="85" y="0" type="line"/>
    </contour>
    <contour>
      <point x="50" y="1456" type="line"/>
      <point x="115" y="1456" type="line"/>
      <point x="551" y="763" type="line"/>
      <point x="553" y="763" type="line"/>
      <point x="1049" y="0" type="line"/>
      <point x="984" y="0" type="line"/>
      <point x="524" y="713" type="line"/>
      <point x="522" y="713" type="line"/>
    </contour>
  </outline>
</glyph>
<glyph name="bracketleft" format="1">
  <advance width="520"/>
  <unicode hex="005B"/>
  <outline>
    <contour>
      <point x="144" y="-310" type="line"/>
      <point x="490" y="-310" type="line"/>
      <point x="490" y="-260" type="line"/>
      <point x="199" y="-260" type="line"/>
      <point x="199" y="1406" type="line"/>
      <point x="490" y="1406" type="line"/>
      <point x="490" y="1456" type="line"/>
      <point x="144" y="1456" type="line"/>
    </contour>
  </outline>
</glyph>
<glyph name="backslash" format="1">
  <advance width="580"/>
  <unicode hex="005C"/>
  <outline>
    <contour>
      <point x="682" y="-125" type="line"/>
      <point x="74" y="1456" type="line"/>
      <point x="-102" y="1456" type="line"/>
      <point x="505" y="-125" type="line"/>
    </contour>
  </outline>
</glyph>
<glyph name="asciicircum" format="1">
  <advance width="1040"/>
  <unicode hex="005E"/>
  <outline>
    <contour>
      <point x="25" y="720" type="line"/>
      <point x="95" y="720" type="line"/>
      <point x="520" y="1390" type="line"/>
      <point x="945" y="720" type="line"/>
      <point x="1015" y="720" type="line"/>
      <point x="540" y="1456" type="line"/>
      <point x="500" y="1456" type="line"/>
    </contour>
  </outline>
</glyph>
<glyph name="grave" format="1">
  <advance width="1024"/>
  <unicode hex="0060"/>
  <outline>
    <contour>
      <point x="494" y="1156" type="line"/>
      <point x="549" y="1156" type="line"/>
      <point x="320" y="1456" type="line"/>
      <point x="255" y="1456" type="line"/>
    </contour>
  </outline>
</glyph>
<glyph name="e" format="1">
  <advance width="788"/>
  <unicode hex="0065"/>
  <outline>
    <contour>
      <point x="85" y="510" type="line" smooth="yes"/>
      <point x="85" y="272"/>
      <point x="276" y="-30"/>
      <point x="455" y="-30" type="qcurve" smooth="yes"/>
      <point x="555" y="-30"/>
      <point x="690" y="60"/>
      <point x="730" y="120" type="qcurve"/>
      <point x="690" y="155" type="line"/>
      <point x="645" y="90"/>
      <point x="535" y="20"/>
      <point x="455" y="20" type="qcurve" smooth="yes"/>
      <point x="293" y="20"/>
      <point x="139" y="302"/>
      <point x="139" y="510" type="qcurve" smooth="yes"/>
      <point x="139" y="542" type="line" smooth="yes"/>
      <point x="139" y="750"/>
      <point x="285" y="1032"/>
      <point x="425" y="1032" type="qcurve" smooth="yes"/>
      <point x="565" y="1032"/>
      <point x="682" y="770"/>
      <point x="682" y="600" type="qcurve"/>
      <point x="682" y="582" type="line"/>
      <point x="112" y="582" type="line"/>
      <point x="112" y="534" type="line"/>
      <point x="736" y="534" type="line"/>
      <point x="736" y="560" type="line" smooth="yes"/>
      <point x="736" y="800"/>
      <point x="575" y="1082"/>
      <point x="425" y="1082" type="qcurve" smooth="yes"/>
      <point x="271" y="1082"/>
      <point x="85" y="780"/>
      <point x="85" y="542" type="qcurve" smooth="yes"/>
    </contour>
  </outline>
</glyph>
<glyph name="f" format="1">
  <advance width="468"/>
  <unicode hex="0066"/>
  <outline>
    <contour>
      <point x="196" y="0" type="line"/>
      <point x="250" y="0" type="line"/>
      <point x="250" y="1022" type="line"/>
      <point x="250" y="1032" type="line"/>
      <point x="250" y="1200" type="line" smooth="yes"/>
      <point x="250" y="1355.0"/>
      <point x="348" y="1510"/>
      <point x="438" y="1510" type="qcurve" smooth="yes"/>
      <point x="464" y="1510"/>
      <point x="518" y="1500"/>
      <point x="536" y="1495" type="qcurve"/>
      <point x="546" y="1540" type="line"/>
      <point x="522" y="1546"/>
      <point x="466" y="1556"/>
      <point x="438" y="1556" type="qcurve" smooth="yes"/>
      <point x="326" y="1556"/>
      <point x="196" y="1374.0"/>
      <point x="196" y="1200" type="qcurve" smooth="yes"/>
    </contour>
    <contour>
      <point x="25" y="1002" type="line"/>
      <point x="478" y="1002" type="line"/>
      <point x="478" y="1052" type="line"/>
      <point x="228" y="1052" type="line"/>
      <point x="218" y="1052" type="line"/>
      <point x="25" y="1052" type="line"/>
    </contour>
  </outline>
</glyph>
<glyph name="g" format="1">
  <advance width="902"/>
  <unicode hex="0067"/>
  <outline>
    <contour>
      <point x="120" y="-334" type="line"/>
      <point x="174" y="-380"/>
      <point x="324" y="-436"/>
      <point x="414" y="-436" type="qcurve" smooth="yes"/>
      <point x="565" y="-436"/>
      <point x="754" y="-200"/>
      <point x="754" y="20" type="qcurve" smooth="yes"/>
      <point x="754" y="1052" type="line"/>
      <point x="706" y="1052" type="line"/>
      <point x="706" y="915" type="line"/>
      <point x="704" y="915" type="line"/>
      <point x="665" y="978"/>
      <point x="514" y="1072"/>
      <point x="419" y="1072" type="qcurve" smooth="yes"/>
      <point x="259" y="1072"/>
      <point x="85" y="772"/>
      <point x="85" y="542" type="qcurve" smooth="yes"/>
      <point x="85" y="510" type="line" smooth="yes"/>
      <point x="85" y="280"/>
      <point x="259" y="-20"/>
      <point x="419" y="-20" type="qcurve" smooth="yes"/>
      <point x="514" y="-20"/>
      <point x="655" y="61"/>
      <point x="700" y="124" type="qcurve"/>
      <point x="700" y="20" type="line" smooth="yes"/>
      <point x="700" y="-173"/>
      <point x="544" y="-386"/>
      <point x="409" y="-386" type="qcurve" smooth="yes"/>
      <point x="334" y="-386"/>
      <point x="194" y="-330"/>
      <point x="155" y="-289" type="qcurve"/>
    </contour>
    <contour>
      <point x="139" y="510" type="qcurve" smooth="yes"/>
      <point x="139" y="542" type="line" smooth="yes"/>
      <point x="139" y="745"/>
      <point x="279" y="1022"/>
      <point x="429" y="1022" type="qcurve" smooth="yes"/>
      <point x="529" y="1022"/>
      <point x="669" y="911"/>
      <point x="700" y="840" type="qcurve"/>
      <point x="700" y="212" type="line"/>
      <point x="669" y="141"/>
      <point x="529" y="30"/>
      <point x="429" y="30" type="qcurve" smooth="yes"/>
      <point x="279" y="30"/>
      <point x="139" y="307"/>
    </contour>
  </outline>
</glyph>
<glyph name="h" format="1">
  <advance width="874"/>
  <unicode hex="0068"/>
  <outline>
    <contour>
      <point x="148" y="0" type="line"/>
      <point x="202" y="0" type="line"/>
      <point x="202" y="844" type="line"/>
      <point x="241" y="922"/>
      <point x="376" y="1022"/>
      <point x="465" y="1022" type="qcurve" smooth="yes"/>
      <point x="569" y="1022"/>
      <point x="682" y="910"/>
      <point x="682" y="781" type="qcurve" smooth="yes"/>
      <point x="682" y="0" type="line"/>
      <point x="736" y="0" type="line"/>
      <point x="736" y="779" type="line" smooth="yes"/>
      <point x="736" y="937"/>
      <point x="595" y="1072"/>
      <point x="475" y="1072" type="qcurve" smooth="yes"/>
      <point x="385" y="1072"/>
      <point x="245" y="987"/>
      <point x="202" y="922" type="qcurve"/>
      <point x="202" y="1536" type="line"/>
      <point x="148" y="1536" type="line"/>
    </contour>
  </outline>
</glyph>
<glyph name="j" format="1">
  <advance width="368"/>
  <unicode hex="006A"/>
  <outline>
    <contour>
      <point x="-94" y="-416" type="line"/>
      <point x="-77.36760055494096" y="-422.33615216954627"/>
      <point x="-15.611940298507463" y="-436.0"/>
      <point x="10" y="-436" type="qcurve" smooth="yes"/>
      <point x="108.73684210526315" y="-436.0"/>
      <point x="211" y="-270.0"/>
      <point x="211" y="-90" type="qcurve" smooth="yes"/>
      <point x="211" y="1052" type="line"/>
      <point x="157" y="1052" type="line"/>
      <point x="157" y="-130" type="line" smooth="yes"/>
      <point x="157" y="-266.53333333333336"/>
      <point x="74.0" y="-386.0"/>
      <point x="0" y="-386" type="qcurve" smooth="yes"/>
      <point x="-23" y="-386"/>
      <point x="-78" y="-373"/>
      <point x="-94" y="-368" type="qcurve"/>
    </contour>
    <contour>
      <point x="140" y="1412" type="qcurve" smooth="yes"/>
      <point x="140" y="1385"/>
      <point x="163" y="1348"/>
      <point x="184" y="1348" type="qcurve" smooth="yes"/>
      <point x="205" y="1348"/>
      <point x="228" y="1385"/>
      <point x="228" y="1412" type="qcurve" smooth="yes"/>
      <point x="228" y="1439"/>
      <point x="205" y="1476"/>
      <point x="184" y="1476" type="qcurve" smooth="yes"/>
      <point x="163" y="1476"/>
      <point x="140" y="1439"/>
    </contour>
  </outline>
</glyph>
<glyph name="k" format="1">
  <advance width="1028"/>
  <unicode hex="006B"/>
  <outline>
    <contour>
      <point x="148" y="0" type="line"/>
      <point x="334" y="0" type="line"/>
      <point x="334" y="351" type="line"/>
      <point x="995" y="1052" type="line"/>
      <point x="774" y="1052" type="line"/>
      <point x="334" y="578" type="line"/>
      <point x="334" y="1536" type="line"/>
      <point x="148" y="1536" type="line"/>
    </contour>
    <contour>
      <point x="818" y="0" type="line"/>
      <point x="1044" y="0" type="line"/>
      <point x="531" y="678" type="line"/>
      <point x="407" y="545" type="line"/>
    </contour>
  </outline>
</glyph>
<glyph name="n" format="1">
  <advance width="874"/>
  <unicode hex="006E"/>
  <outline>
    <contour>
      <point x="148" y="0" type="line"/>
      <point x="202" y="0" type="line"/>
      <point x="202" y="844" type="line"/>
      <point x="241" y="922"/>
      <point x="376" y="1022"/>
      <point x="465" y="1022" type="qcurve" smooth="yes"/>
      <point x="569" y="1022"/>
      <point x="682" y="910.2170212765957"/>
      <point x="682" y="781" type="qcurve" smooth="yes"/>
      <point x="682" y="0" type="line"/>
      <point x="736" y="0" type="line"/>
      <point x="736" y="779" type="line" smooth="yes"/>
      <point x="736" y="937.0559796437659"/>
      <point x="595" y="1072"/>
      <point x="475" y="1072" type="qcurve" smooth="yes"/>
      <point x="385" y="1072"/>
      <point x="242" y="986"/>
      <point x="198" y="917" type="qcurve"/>
      <point x="196" y="917" type="line"/>
      <point x="196" y="1052" type="line"/>
      <point x="148" y="1052" type="line"/>
    </contour>
  </outline>
</glyph>
<glyph name="o" format="1">
  <advance width="890"/>
  <unicode hex="006F"/>
  <outline>
    <contour>
      <point x="85" y="510" type="line" smooth="yes"/>
      <point x="85" y="272"/>
      <point x="281" y="-30"/>
      <point x="445" y="-30" type="qcurve" smooth="yes"/>
      <point x="609" y="-30"/>
      <point x="805" y="272"/>
      <point x="805" y="510" type="qcurve" smooth="yes"/>
      <point x="805" y="542" type="line" smooth="yes"/>
      <point x="805" y="780"/>
      <point x="609" y="1082"/>
      <point x="445" y="1082" type="qcurve" smooth="yes"/>
      <point x="281" y="1082"/>
      <point x="85" y="780"/>
      <point x="85" y="542" type="qcurve" smooth="yes"/>
    </contour>
    <contour>
      <point x="139" y="542" type="line" smooth="yes"/>
      <point x="139" y="748"/>
      <point x="295" y="1032"/>
      <point x="445" y="1032" type="qcurve" smooth="yes"/>
      <point x="595" y="1032"/>
      <point x="751" y="748"/>
      <point x="751" y="542" type="qcurve" smooth="yes"/>
      <point x="751" y="510" type="line" smooth="yes"/>
      <point x="751" y="304"/>
      <point x="595" y="20"/>
      <point x="445" y="20" type="qcurve" smooth="yes"/>
      <point x="295" y="20"/>
      <point x="139" y="304"/>
      <point x="139" y="510" type="qcurve" smooth="yes"/>
    </contour>
  </outline>
</glyph>
<glyph name="p" format="1">
  <advance width="902"/>
  <unicode hex="0070"/>
  <outline>
    <contour>
      <point x="148" y="-416" type="line"/>
      <point x="202" y="-416" type="line"/>
      <point x="202" y="124" type="line"/>
      <point x="247" y="61"/>
      <point x="388" y="-20"/>
      <point x="483" y="-20" type="qcurve" smooth="yes"/>
      <point x="643" y="-20"/>
      <point x="817" y="280"/>
      <point x="817" y="510" type="qcurve" smooth="yes"/>
      <point x="817" y="542" type="line" smooth="yes"/>
      <point x="817" y="772"/>
      <point x="643" y="1072"/>
      <point x="483" y="1072" type="qcurve" smooth="yes"/>
      <point x="388" y="1072"/>
      <point x="237" y="978"/>
      <point x="198" y="915" type="qcurve"/>
      <point x="196" y="915" type="line"/>
      <point x="196" y="1052" type="line"/>
      <point x="148" y="1052" type="line"/>
    </contour>
    <contour>
      <point x="202" y="212" type="qcurve"/>
      <point x="202" y="840" type="line"/>
      <point x="233" y="911"/>
      <point x="373" y="1022"/>
      <point x="473" y="1022" type="qcurve" smooth="yes"/>
      <point x="623" y="1022"/>
      <point x="763" y="745"/>
      <point x="763" y="542" type="qcurve" smooth="yes"/>
      <point x="763" y="510" type="line" smooth="yes"/>
      <point x="763" y="307"/>
      <point x="623" y="30"/>
      <point x="473" y="30" type="qcurve" smooth="yes"/>
      <point x="373" y="30"/>
      <point x="233" y="141"/>
    </contour>
  </outline>
</glyph>
<glyph name="r" format="1">
  <advance width="701"/>
  <unicode hex="0072"/>
  <outline>
    <contour>
      <point x="148" y="0" type="line"/>
      <point x="148" y="1052" type="line"/>
      <point x="315" y="1052" type="line"/>
      <point x="325" y="917" type="line"/>
      <point x="329" y="917" type="line"/>
      <point x="369" y="983"/>
      <point x="501" y="1082"/>
      <point x="589" y="1082" type="qcurve" smooth="yes"/>
      <point x="608" y="1082"/>
      <point x="661" y="1072"/>
      <point x="671" y="1068" type="qcurve"/>
      <point x="671" y="896" type="line"/>
      <point x="648" y="900"/>
      <point x="606" y="904"/>
      <point x="580" y="904" type="qcurve" smooth="yes"/>
      <point x="486" y="904"/>
      <point x="364" y="809"/>
      <point x="334" y="738" type="qcurve"/>
      <point x="334" y="0" type="line"/>
    </contour>
  </outline>
</glyph>
<glyph name="s" format="1">
  <advance width="746"/>
  <unicode hex="0073"/>
  <outline>
    <contour>
      <point x="80" y="310" type="line"/>
      <point x="80" y="305" type="line" smooth="yes"/>
      <point x="80" y="150"/>
      <point x="233" y="-30"/>
      <point x="378" y="-30" type="qcurve" smooth="yes"/>
      <point x="523" y="-30"/>
      <point x="666" y="140"/>
      <point x="666" y="270" type="qcurve" smooth="yes"/>
      <point x="666" y="395"/>
      <point x="528" y="530"/>
      <point x="398" y="570" type="qcurve" smooth="yes"/>
      <point x="268" y="610"/>
      <point x="170" y="715"/>
      <point x="170" y="810" type="qcurve" smooth="yes"/>
      <point x="170" y="905"/>
      <point x="278" y="1032"/>
      <point x="378" y="1032" type="qcurve" smooth="yes"/>
      <point x="478" y="1032"/>
      <point x="593" y="888"/>
      <point x="593" y="760" type="qcurve" smooth="yes"/>
      <point x="593" y="755" type="line"/>
      <point x="647" y="755" type="line"/>
      <point x="647" y="760" type="line" smooth="yes"/>
      <point x="647" y="910"/>
      <point x="499" y="1082"/>
      <point x="378" y="1082" type="qcurve" smooth="yes"/>
      <point x="258" y="1082"/>
      <point x="116" y="920"/>
      <point x="116" y="800" type="qcurve" smooth="yes"/>
      <point x="116" y="690"/>
      <point x="248" y="560"/>
      <point x="378" y="520" type="qcurve" smooth="yes"/>
      <point x="508" y="480"/>
      <point x="612" y="370"/>
      <point x="612" y="260" type="qcurve" smooth="yes"/>
      <point x="612" y="154"/>
      <point x="488" y="20"/>
      <point x="378" y="20" type="qcurve" smooth="yes"/>
      <point x="268" y="20"/>
      <point x="134" y="160"/>
      <point x="134" y="305" type="qcurve" smooth="yes"/>
      <point x="134" y="310" type="line"/>
    </contour>
  </outline>
</glyph>
<glyph name="t" format="1">
  <advance width="518"/>
  <unicode hex="0074"/>
  <outline>
    <contour>
      <point x="0" y="1002" type="line"/>
      <point x="468" y="1002" type="line"/>
      <point x="468" y="1052" type="line"/>
      <point x="0" y="1052" type="line"/>
    </contour>
    <contour>
      <point x="188" y="260" type="line" smooth="yes"/>
      <point x="188" y="110"/>
      <point x="284" y="-30"/>
      <point x="368" y="-30" type="qcurve" smooth="yes"/>
      <point x="399" y="-30"/>
      <point x="450" y="-18"/>
      <point x="468" y="-10" type="qcurve"/>
      <point x="468" y="40" type="line"/>
      <point x="446" y="30"/>
      <point x="402" y="20"/>
      <point x="378" y="20" type="qcurve" smooth="yes"/>
      <point x="308" y="20"/>
      <point x="242" y="131"/>
      <point x="242" y="260" type="qcurve" smooth="yes"/>
      <point x="242" y="1312" type="line"/>
      <point x="188" y="1312" type="line"/>
      <point x="188" y="1032" type="line"/>
      <point x="188" y="1022" type="line"/>
    </contour>
  </outline>
</glyph>
<glyph name="u" format="1">
  <advance width="874"/>
  <unicode hex="0075"/>
  <outline>
    <contour>
      <point x="138" y="273" type="line" smooth="yes"/>
      <point x="138" y="115"/>
      <point x="279" y="-20"/>
      <point x="399" y="-20" type="qcurve" smooth="yes"/>
      <point x="489" y="-20"/>
      <point x="632" y="66"/>
      <point x="676" y="135" type="qcurve"/>
      <point x="678" y="135" type="line"/>
      <point x="678" y="0" type="line"/>
      <point x="726" y="0" type="line"/>
      <point x="726" y="1052" type="line"/>
      <point x="672" y="1052" type="line"/>
      <point x="672" y="208" type="line"/>
      <point x="633" y="130"/>
      <point x="498" y="30"/>
      <point x="409" y="30" type="qcurve" smooth="yes"/>
      <point x="305" y="30"/>
      <point x="192" y="142"/>
      <point x="192" y="271" type="qcurve" smooth="yes"/>
      <point x="192" y="1052" type="line"/>
      <point x="138" y="1052" type="line"/>
    </contour>
  </outline>
</glyph>
<glyph name="v" format="1">
  <advance width="802"/>
  <unicode hex="0076"/>
  <outline>
    <contour>
      <point x="0" y="1052" type="line"/>
      <point x="375" y="0" type="line"/>
      <point x="427" y="0" type="line"/>
      <point x="802" y="1052" type="line"/>
      <point x="746" y="1052" type="line"/>
      <point x="454" y="220" type="line" smooth="yes"/>
      <point x="440" y="180"/>
      <point x="414" y="100"/>
      <point x="406" y="60" type="qcurve"/>
      <point x="400" y="60" type="line"/>
      <point x="392" y="100"/>
      <point x="366" y="180"/>
      <point x="352" y="220" type="qcurve" smooth="yes"/>
      <point x="60" y="1052" type="line"/>
    </contour>
  </outline>
</glyph>
<glyph name="w" format="1">
  <advance width="1290"/>
  <unicode hex="0077"/>
  <outline>
    <contour>
      <point x="25" y="1052" type="line"/>
      <point x="296" y="0" type="line"/>
      <point x="356" y="0" type="line"/>
      <point x="608" y="830" type="line" smooth="yes"/>
      <point x="620" y="870"/>
      <point x="638" y="950"/>
      <point x="644" y="990" type="qcurve"/>
      <point x="650" y="990" type="line"/>
      <point x="656" y="950"/>
      <point x="674" y="870"/>
      <point x="686" y="830" type="qcurve" smooth="yes"/>
      <point x="934" y="0" type="line"/>
      <point x="994" y="0" type="line"/>
      <point x="1265" y="1052" type="line"/>
      <point x="1209" y="1052" type="line"/>
      <point x="1000" y="220" type="line" smooth="yes"/>
      <point x="990" y="180"/>
      <point x="976" y="100"/>
      <point x="969" y="60" type="qcurve"/>
      <point x="963" y="60" type="line"/>
      <point x="956" y="100"/>
      <point x="934" y="180"/>
      <point x="922" y="220" type="qcurve" smooth="yes"/>
      <point x="676" y="1052" type="line"/>
      <point x="616" y="1052" type="line"/>
      <point x="373" y="220" type="line" smooth="yes"/>
      <point x="361" y="180"/>
      <point x="340" y="100"/>
      <point x="333" y="60" type="qcurve"/>
      <point x="327" y="60" type="line"/>
      <point x="320" y="100"/>
      <point x="305" y="180"/>
      <point x="295" y="220" type="qcurve" smooth="yes"/>
      <point x="83" y="1052" type="line"/>
    </contour>
  </outline>
</glyph>
<glyph name="y" format="1">
  <advance width="942"/>
  <unicode hex="0079"/>
  <outline>
    <contour>
      <point x="50" y="-416" type="line"/>
      <point x="78" y="-426"/>
      <point x="140" y="-436"/>
      <point x="180" y="-436" type="qcurve" smooth="yes"/>
      <point x="300" y="-436"/>
      <point x="465" y="-280"/>
      <point x="515" y="-140" type="qcurve" smooth="yes"/>
      <point x="942" y="1052" type="line"/>
      <point x="766" y="1052" type="line"/>
      <point x="528" y="360" type="line" smooth="yes"/>
      <point x="514" y="320"/>
      <point x="494" y="240"/>
      <point x="490" y="200" type="qcurve"/>
      <point x="484" y="200" type="line"/>
      <point x="480" y="240"/>
      <point x="461" y="320"/>
      <point x="446" y="360" type="qcurve" smooth="yes"/>
      <point x="190" y="1052" type="line"/>
      <point x="10" y="1052" type="line"/>
      <point x="404" y="10" type="line"/>
      <point x="365" y="-100" type="line" smooth="yes"/>
      <point x="330" y="-200"/>
      <point x="240" y="-276"/>
      <point x="170" y="-276" type="qcurve" smooth="yes"/>
      <point x="140" y="-276"/>
      <point x="76" y="-266"/>
      <point x="50" y="-258" type="qcurve"/>
    </contour>
    <contour>
      <point x="480.0" y="1052.0" type="move" name="top"/>
    </contour>
  </outline>
</glyph>
<glyph name="z" format="1">
  <advance width="988"/>
  <unicode hex="007A"/>
  <outline>
    <contour>
      <point x="68" y="0" type="line"/>
      <point x="926" y="0" type="line"/>
      <point x="926" y="152" type="line"/>
      <point x="289" y="152" type="line"/>
      <point x="897" y="921" type="line"/>
      <point x="897" y="1052" type="line"/>
      <point x="76" y="1052" type="line"/>
      <point x="76" y="899" type="line"/>
      <point x="670" y="899" type="line"/>
      <point x="68" y="136" type="line"/>
    </contour>
  </outline>
</glyph>
<glyph name="braceleft" format="1">
  <advance width="570"/>
  <unicode hex="007B"/>
  <outline>
    <contour>
      <point x="540" y="-312" type="qcurve"/>
      <point x="540" y="-262" type="line"/>
      <point x="392" y="-262"/>
      <point x="244" y="-36"/>
      <point x="282" y="123" type="qcurve" smooth="yes"/>
      <point x="332" y="334" type="line" smooth="yes"/>
      <point x="352" y="418"/>
      <point x="280" y="548"/>
      <point x="182" y="574" type="qcurve"/>
      <point x="280" y="600"/>
      <point x="352" y="730"/>
      <point x="332" y="814" type="qcurve" smooth="yes"/>
      <point x="282" y="1025" type="line" smooth="yes"/>
      <point x="244" y="1184"/>
      <point x="392" y="1410"/>
      <point x="540" y="1410" type="qcurve"/>
      <point x="540" y="1460" type="line"/>
      <point x="380" y="1460"/>
      <point x="185" y="1200"/>
      <point x="226" y="1025" type="qcurve" smooth="yes"/>
      <point x="276" y="814" type="line" smooth="yes"/>
      <point x="307" y="684"/>
      <point x="176" y="600"/>
      <point x="64" y="600" type="qcurve"/>
      <point x="64" y="548" type="line"/>
      <point x="176" y="548"/>
      <point x="307" y="464"/>
      <point x="276" y="334" type="qcurve" smooth="yes"/>
      <point x="226" y="123" type="line" smooth="yes"/>
      <point x="185" y="-52"/>
      <point x="380" y="-312"/>
    </contour>
  </outline>
</glyph>
<glyph name="exclamdown" format="1">
  <advance width="476"/>
  <unicode hex="00A1"/>
  <outline>
    <contour>
      <point x="211" y="-280" type="line"/>
      <point x="265" y="-280" type="line"/>
      <point x="260" y="796" type="line"/>
      <point x="216" y="796" type="line"/>
    </contour>
    <contour>
      <point x="186" y="1123" type="qcurve" smooth="yes"/>
      <point x="186" y="1092"/>
      <point x="213" y="1048"/>
      <point x="238" y="1048" type="qcurve" smooth="yes"/>
      <point x="263" y="1048"/>
      <point x="290" y="1092"/>
      <point x="290" y="1123" type="qcurve" smooth="yes"/>
      <point x="290" y="1154"/>
      <point x="263" y="1198"/>
      <point x="238" y="1198" type="qcurve" smooth="yes"/>
      <point x="213" y="1198"/>
      <point x="186" y="1154"/>
    </contour>
  </outline>
</glyph>
<glyph name="cent" format="1">
  <advance width="1054"/>
  <unicode hex="00A2"/>
  <outline>
    <contour>
      <point x="85" y="520" type="line" smooth="yes"/>
      <point x="85" y="286.4074074074074"/>
      <point x="349.3292181069959" y="-10.0"/>
      <point x="581" y="-10" type="qcurve" smooth="yes"/>
      <point x="795.9065420560747" y="-10.0"/>
      <point x="1019" y="217"/>
      <point x="1019" y="357" type="qcurve"/>
      <point x="1019" y="362" type="line"/>
      <point x="839" y="362" type="line"/>
      <point x="839" y="357" type="line"/>
      <point x="839" y="272"/>
      <point x="716.241935483871" y="142.0"/>
      <point x="581" y="142" type="qcurve" smooth="yes"/>
      <point x="423.8648648648649" y="142.0"/>
      <point x="275" y="361.20103092783506"/>
      <point x="275" y="520" type="qcurve" smooth="yes"/>
      <point x="275" y="552" type="line" smooth="yes"/>
      <point x="275" y="710.7989690721649"/>
      <point x="423.8648648648649" y="930.0"/>
      <point x="581" y="930" type="qcurve" smooth="yes"/>
      <point x="716.241935483871" y="930.0"/>
      <point x="839" y="800"/>
      <point x="839" y="715" type="qcurve" smooth="yes"/>
      <point x="839" y="710" type="line"/>
      <point x="1019" y="710" type="line"/>
      <point x="1019" y="715" type="line" smooth="yes"/>
      <point x="1019" y="855"/>
      <point x="795.9065420560747" y="1082.0"/>
      <point x="581" y="1082" type="qcurve" smooth="yes"/>
      <point x="349.3292181069959" y="1082.0"/>
      <point x="85" y="785.5925925925926"/>
      <point x="85" y="552" type="qcurve" smooth="yes"/>
    </contour>
    <contour>
      <point x="500" y="-256" type="line"/>
      <point x="650" y="-256" type="line"/>
      <point x="650" y="54" type="line"/>
      <point x="644" y="60" type="line"/>
      <point x="644" y="541" type="line"/>
      <point x="506" y="541" type="line"/>
      <point x="506" y="60" type="line"/>
      <point x="500" y="54" type="line"/>
    </contour>
    <contour>
      <point x="506" y="541" type="line"/>
      <point x="644" y="541" type="line"/>
      <point x="644" y="1022" type="line"/>
      <point x="650" y="1028" type="line"/>
      <point x="650" y="1328" type="line"/>
      <point x="500" y="1328" type="line"/>
      <point x="500" y="1028" type="line"/>
      <point x="506" y="1022" type="line"/>
    </contour>
  </outline>
</glyph>
<glyph name="sterling" format="1">
  <advance width="914"/>
  <unicode hex="00A3"/>
  <outline>
    <contour>
      <point x="120" y="0" type="line"/>
      <point x="838" y="0" type="line"/>
      <point x="838" y="50" type="line"/>
      <point x="238" y="50" type="line"/>
      <point x="290" y="100"/>
      <point x="368" y="290"/>
      <point x="368" y="440" type="qcurve" smooth="yes"/>
      <point x="368" y="580"/>
      <point x="284" y="930"/>
      <point x="284" y="1060" type="qcurve" smooth="yes"/>
      <point x="284" y="1240"/>
      <point x="408" y="1426"/>
      <point x="523" y="1426" type="qcurve" smooth="yes"/>
      <point x="638" y="1426"/>
      <point x="768" y="1240"/>
      <point x="768" y="1065" type="qcurve" smooth="yes"/>
      <point x="768" y="1045" type="line"/>
      <point x="822" y="1045" type="line"/>
      <point x="822" y="1065" type="line" smooth="yes"/>
      <point x="822" y="1250"/>
      <point x="666" y="1476"/>
      <point x="523" y="1476" type="qcurve" smooth="yes"/>
      <point x="380" y="1476"/>
      <point x="230" y="1250"/>
      <point x="230" y="1060" type="qcurve" smooth="yes"/>
      <point x="230" y="920"/>
      <point x="314" y="560"/>
      <point x="314" y="420" type="qcurve" smooth="yes"/>
      <point x="314" y="280"/>
      <point x="205" y="60"/>
      <point x="120" y="48" type="qcurve"/>
    </contour>
    <contour>
      <point x="100" y="690" type="line"/>
      <point x="768" y="690" type="line"/>
      <point x="768" y="740" type="line"/>
      <point x="100" y="740" type="line"/>
    </contour>
  </outline>
</glyph>
<glyph name="currency" format="1">
  <advance width="1460"/>
  <unicode hex="00A4"/>
  <outline>
    <contour>
      <point x="266" y="610" type="qcurve" smooth="yes"/>
      <point x="266.0" y="355.0"/>
      <point x="529.2695652173913" y="0.0"/>
      <point x="730" y="0" type="qcurve" smooth="yes"/>
      <point x="930.7304347826087" y="0.0"/>
      <point x="1194.0" y="355.0"/>
      <point x="1194" y="610" type="qcurve" smooth="yes"/>
      <point x="1194.0" y="865.0"/>
      <point x="930.7304347826087" y="1220.0"/>
      <point x="730" y="1220" type="qcurve" smooth="yes"/>
      <point x="529.2695652173913" y="1220.0"/>
      <point x="266.0" y="865.0"/>
    </contour>
    <contour>
      <point x="320" y="610" type="qcurve" smooth="yes"/>
      <point x="320.0" y="846.3120567375886"/>
      <point x="550.0" y="1170.0"/>
      <point x="730" y="1170" type="qcurve" smooth="yes"/>
      <point x="910.0" y="1170.0"/>
      <point x="1140.0" y="846.3120567375886"/>
      <point x="1140" y="610" type="qcurve" smooth="yes"/>
      <point x="1140.0" y="373.68794326241135"/>
      <point x="910.0" y="50.0"/>
      <point x="730" y="50" type="qcurve" smooth="yes"/>
      <point x="550.0" y="50.0"/>
      <point x="320.0" y="373.68794326241135"/>
    </contour>
    <contour>
      <point x="205" y="1210" type="line"/>
      <point x="403" y="1012" type="line"/>
      <point x="439" y="1048" type="line"/>
      <point x="241" y="1246" type="line"/>
    </contour>
    <contour>
      <point x="1021" y="1048" type="line"/>
      <point x="1057" y="1012" type="line"/>
      <point x="1255" y="1210" type="line"/>
      <point x="1219" y="1246" type="line"/>
    </contour>
    <contour>
      <point x="1021" y="172" type="line"/>
      <point x="1219" y="-26" type="line"/>
      <point x="1255" y="10" type="line"/>
      <point x="1057" y="208" type="line"/>
    </contour>
    <contour>
      <point x="205" y="10" type="line"/>
      <point x="241" y="-26" type="line"/>
      <point x="439" y="172" type="line"/>
      <point x="403" y="208" type="line"/>
    </contour>
  </outline>
</glyph>
<glyph name="section" format="1">
  <advance width="1239.0"/>
  <unicode hex="00A7"/>
  <outline>
    <contour>
      <point x="129" y="576" type="qcurve" smooth="yes"/>
      <point x="129" y="420"/>
      <point x="319" y="251"/>
      <point x="547" y="188" type="qcurve" smooth="yes"/>
      <point x="776" y="127"/>
      <point x="926.0" y="19.0"/>
      <point x="926.0" y="-72.0" type="qcurve" smooth="yes"/>
      <point x="926.0" y="-173.0"/>
      <point x="762.0" y="-296.0"/>
      <point x="609.0" y="-296.0" type="qcurve" smooth="yes"/>
      <point x="455.0" y="-296.0"/>
      <point x="284.0" y="-176.0"/>
      <point x="284.0" y="-56.0" type="qcurve" smooth="yes"/>
      <point x="284.0" y="-44.0" type="line"/>
      <point x="100.0" y="-44.0" type="line"/>
      <point x="100.0" y="-56.0" type="line" smooth="yes"/>
      <point x="100.0" y="-236.0"/>
      <point x="378.0" y="-446.0"/>
      <point x="609.0" y="-446.0" type="qcurve" smooth="yes"/>
      <point x="839.0" y="-446.0"/>
      <point x="1108.0" y="-236.0"/>
      <point x="1108.0" y="-72.0" type="qcurve" smooth="yes"/>
      <point x="1108.0" y="92.0"/>
      <point x="904.0" y="273.0"/>
      <point x="680.0" y="333.0" type="qcurve" smooth="yes"/>
      <point x="455.0" y="394.0"/>
      <point x="311.0" y="493.0"/>
      <point x="311.0" y="576.0" type="qcurve" smooth="yes"/>
      <point x="311" y="676"/>
      <point x="451" y="787"/>
      <point x="599" y="787" type="qcurve"/>
      <point x="400" y="900" type="line"/>
      <point x="270" y="860"/>
      <point x="129" y="693"/>
    </contour>
    <contour>
      <point x="160" y="1125" type="qcurve" smooth="yes"/>
      <point x="160" y="969"/>
      <point x="350.0" y="800.0"/>
      <point x="578.0" y="737.0" type="qcurve" smooth="yes"/>
      <point x="807.0" y="676.0"/>
      <point x="957.0" y="568.0"/>
      <point x="957.0" y="477.0" type="qcurve" smooth="yes"/>
      <point x="957.0" y="376.0"/>
      <point x="793.0" y="253.0"/>
      <point x="640.0" y="253.0" type="qcurve"/>
      <point x="900" y="150" type="line"/>
      <point x="1010" y="195"/>
      <point x="1139.0" y="366.0"/>
      <point x="1139.0" y="477.0" type="qcurve" smooth="yes"/>
      <point x="1139.0" y="641.0"/>
      <point x="935.0" y="822.0"/>
      <point x="711.0" y="882.0" type="qcurve" smooth="yes"/>
      <point x="486.0" y="943.0"/>
      <point x="342.0" y="1042.0"/>
      <point x="342.0" y="1125.0" type="qcurve" smooth="yes"/>
      <point x="342.0" y="1225.0"/>
      <point x="482.0" y="1336.0"/>
      <point x="630.0" y="1336.0" type="qcurve" smooth="yes"/>
      <point x="778.0" y="1336.0"/>
      <point x="928.0" y="1207.0"/>
      <point x="928.0" y="1101.0" type="qcurve" smooth="yes"/>
      <point x="928.0" y="1090.0" type="line"/>
      <point x="1112.0" y="1090.0" type="line"/>
      <point x="1112.0" y="1101.0" type="line" smooth="yes"/>
      <point x="1112.0" y="1262.0"/>
      <point x="851.0" y="1486.0"/>
      <point x="630.0" y="1486.0" type="qcurve" smooth="yes"/>
      <point x="409.0" y="1486.0"/>
      <point x="160" y="1280"/>
    </contour>
  </outline>
</glyph>
<glyph name="copyright" format="1">
  <advance width="1538"/>
  <unicode hex="00A9"/>
  <outline>
    <contour>
      <point x="94" y="698" type="qcurve" smooth="yes"/>
      <point x="94" y="364"/>
      <point x="494" y="-82"/>
      <point x="769" y="-82" type="qcurve" smooth="yes"/>
      <point x="1044" y="-82"/>
      <point x="1444" y="364"/>
      <point x="1444" y="698" type="qcurve" smooth="yes"/>
      <point x="1444" y="1032"/>
      <point x="1044" y="1478"/>
      <point x="769" y="1478" type="qcurve" smooth="yes"/>
      <point x="494" y="1478"/>
      <point x="94" y="1032"/>
    </contour>
    <contour>
      <point x="146" y="698" type="qcurve" smooth="yes"/>
      <point x="146" y="1002"/>
      <point x="503" y="1428"/>
      <point x="769" y="1428" type="qcurve" smooth="yes"/>
      <point x="1035" y="1428"/>
      <point x="1392" y="1002"/>
      <point x="1392" y="698" type="qcurve" smooth="yes"/>
      <point x="1392" y="394"/>
      <point x="1035" y="-32"/>
      <point x="769" y="-32" type="qcurve" smooth="yes"/>
      <point x="503" y="-32"/>
      <point x="146" y="394"/>
    </contour>
    <contour>
      <point x="476" y="668" type="line" smooth="yes"/>
      <point x="476" y="488.0"/>
      <point x="644.0" y="264.0"/>
      <point x="770" y="264" type="qcurve" smooth="yes"/>
      <point x="888.8783068783068" y="264.0"/>
      <point x="1044" y="440"/>
      <point x="1044" y="570" type="qcurve" smooth="yes"/>
      <point x="1044" y="580" type="line"/>
      <point x="992" y="580" type="line"/>
      <point x="992" y="570" type="line" smooth="yes"/>
      <point x="992" y="446.6265060240964"/>
      <point x="874.0" y="314.0"/>
      <point x="770" y="314" type="qcurve" smooth="yes"/>
      <point x="656.0" y="314.0"/>
      <point x="528" y="507.0909090909091"/>
      <point x="528" y="668" type="qcurve" smooth="yes"/>
      <point x="528" y="748" type="line" smooth="yes"/>
      <point x="528" y="908.9090909090909"/>
      <point x="656.0" y="1102.0"/>
      <point x="770" y="1102" type="qcurve" smooth="yes"/>
      <point x="874.0" y="1102.0"/>
      <point x="992" y="969.3734939759036"/>
      <point x="992" y="846" type="qcurve" smooth="yes"/>
      <point x="992" y="836" type="line"/>
      <point x="1044" y="836" type="line"/>
      <point x="1044" y="846" type="line" smooth="yes"/>
      <point x="1044" y="976"/>
      <point x="888.8783068783068" y="1152.0"/>
      <point x="770" y="1152" type="qcurve" smooth="yes"/>
      <point x="644.0" y="1152.0"/>
      <point x="476" y="928.0"/>
      <point x="476" y="748" type="qcurve" smooth="yes"/>
    </contour>
  </outline>
</glyph>
<glyph name="guillemetleft" format="1">
  <advance width="834"/>
  <unicode hex="00AB"/>
  <outline>
    <contour>
      <point x="388" y="204" type="line"/>
      <point x="448" y="204" type="line"/>
      <point x="136" y="602" type="line"/>
      <point x="448" y="1000" type="line"/>
      <point x="388" y="1000" type="line"/>
      <point x="72" y="612" type="line"/>
      <point x="72" y="592" type="line"/>
    </contour>
    <contour>
      <point x="708" y="204" type="line"/>
      <point x="768" y="204" type="line"/>
      <point x="456" y="602" type="line"/>
      <point x="768" y="1000" type="line"/>
      <point x="708" y="1000" type="line"/>
      <point x="392" y="612" type="line"/>
      <point x="392" y="592" type="line"/>
    </contour>
  </outline>
</glyph>
<glyph name="mu.math" format="1">
  <advance width="884"/>
  <unicode hex="00B5"/>
  <outline>
    <contour>
      <point x="148" y="-416" type="line"/>
      <point x="194" y="-416" type="line"/>
      <point x="194" y="90" type="line"/>
      <point x="226" y="36"/>
      <point x="343" y="-20"/>
      <point x="413" y="-20" type="qcurve" smooth="yes"/>
      <point x="498" y="-20"/>
      <point x="642" y="68"/>
      <point x="686" y="135" type="qcurve"/>
      <point x="688" y="135" type="line"/>
      <point x="688" y="0" type="line"/>
      <point x="736" y="0" type="line"/>
      <point x="736" y="1052" type="line"/>
      <point x="682" y="1052" type="line"/>
      <point x="682" y="208" type="line"/>
      <point x="643" y="130"/>
      <point x="508" y="30"/>
      <point x="418" y="30" type="qcurve" smooth="yes"/>
      <point x="313" y="30"/>
      <point x="202" y="142"/>
      <point x="202" y="271" type="qcurve" smooth="yes"/>
      <point x="202" y="1052" type="line"/>
      <point x="148" y="1052" type="line"/>
    </contour>
  </outline>
</glyph>
<glyph name="cedilla" format="1">
  <advance width="1024"/>
  <unicode hex="00B8"/>
  <outline>
    <contour>
      <point x="488" y="0" type="line"/>
      <point x="428" y="-215" type="line"/>
      <point x="522" y="-215"/>
      <point x="602" y="-282"/>
      <point x="602" y="-340" type="qcurve" smooth="yes"/>
      <point x="602" y="-408"/>
      <point x="480" y="-488"/>
      <point x="346" y="-488" type="qcurve"/>
      <point x="348" y="-536" type="line"/>
      <point x="520" y="-536"/>
      <point x="652" y="-422"/>
      <point x="652" y="-340" type="qcurve" smooth="yes"/>
      <point x="652" y="-268"/>
      <point x="570" y="-184"/>
      <point x="491" y="-173" type="qcurve"/>
      <point x="542" y="0" type="line"/>
    </contour>
  </outline>
</glyph>
<glyph name="ordmasculine" format="1">
  <advance width="700"/>
  <unicode hex="00BA"/>
  <outline>
    <contour>
      <point x="60" y="1027" type="line" smooth="yes"/>
      <point x="60" y="840"/>
      <point x="218" y="603"/>
      <point x="350" y="603" type="qcurve" smooth="yes"/>
      <point x="482" y="603"/>
      <point x="640" y="840"/>
      <point x="640" y="1027" type="qcurve" smooth="yes"/>
      <point x="640" y="1052" type="line" smooth="yes"/>
      <point x="640" y="1239"/>
      <point x="482" y="1476"/>
      <point x="350" y="1476" type="qcurve" smooth="yes"/>
      <point x="218" y="1476"/>
      <point x="60" y="1239"/>
      <point x="60" y="1052" type="qcurve" smooth="yes"/>
    </contour>
    <contour>
      <point x="110" y="1052" type="line" smooth="yes"/>
      <point x="110" y="1210"/>
      <point x="231" y="1430"/>
      <point x="350" y="1430" type="qcurve" smooth="yes"/>
      <point x="469" y="1430"/>
      <point x="590" y="1210"/>
      <point x="590" y="1052" type="qcurve" smooth="yes"/>
      <point x="590" y="1027" type="line" smooth="yes"/>
      <point x="590" y="870"/>
      <point x="469" y="649"/>
      <point x="350" y="649" type="qcurve" smooth="yes"/>
      <point x="231" y="649"/>
      <point x="110" y="870"/>
      <point x="110" y="1027" type="qcurve" smooth="yes"/>
    </contour>
  </outline>
</glyph>
<glyph name="AE" format="1">
  <advance width="1534"/>
  <unicode hex="00C6"/>
  <outline>
    <contour>
      <point x="-60" y="0" type="line"/>
      <point x="2" y="0" type="line"/>
      <point x="780" y="1390" type="line"/>
      <point x="790" y="1390" type="line"/>
      <point x="790" y="0" type="line"/>
      <point x="1466" y="0" type="line"/>
      <point x="1466" y="50" type="line"/>
      <point x="844" y="50" type="line"/>
      <point x="844" y="726" type="line"/>
      <point x="1364" y="726" type="line"/>
      <point x="1364" y="776" type="line"/>
      <point x="844" y="776" type="line"/>
      <point x="844" y="1406" type="line"/>
      <point x="1456" y="1406" type="line"/>
      <point x="1456" y="1456" type="line"/>
      <point x="762" y="1456" type="line"/>
    </contour>
    <contour>
      <point x="223" y="448" type="line"/>
      <point x="817" y="448" type="line"/>
      <point x="817" y="498" type="line"/>
      <point x="251" y="498" type="line"/>
    </contour>
  </outline>
</glyph>
<glyph name="Oslash" format="1">
  <advance width="1182"/>
  <unicode hex="00D8"/>
  <outline>
    <contour>
      <point x="29" y="-80" type="line"/>
      <point x="93" y="-80" type="line"/>
      <point x="244" y="150" type="line"/>
      <point x="244" y="150" type="line"/>
      <point x="622" y="726" type="line"/>
      <point x="560" y="726" type="line"/>
      <point x="247" y="250" type="line"/>
      <point x="247" y="250" type="line"/>
    </contour>
    <contour>
      <point x="560" y="726" type="line"/>
      <point x="622" y="726" type="line"/>
      <point x="935" y="1202" type="line"/>
      <point x="935" y="1202" type="line"/>
      <point x="1153" y="1532" type="line"/>
      <point x="1089" y="1532" type="line"/>
      <point x="938" y="1302" type="line"/>
      <point x="938" y="1302" type="line"/>
    </contour>
    <contour>
      <point x="115" y="682" type="line" smooth="yes"/>
      <point x="115" y="346"/>
      <point x="381" y="-30"/>
      <point x="591" y="-30" type="qcurve" smooth="yes"/>
      <point x="801" y="-30"/>
      <point x="1067" y="346"/>
      <point x="1067" y="682" type="qcurve" smooth="yes"/>
      <point x="1067" y="774" type="line" smooth="yes"/>
      <point x="1067" y="1110"/>
      <point x="801" y="1486"/>
      <point x="591" y="1486" type="qcurve" smooth="yes"/>
      <point x="381" y="1486"/>
      <point x="115" y="1110"/>
      <point x="115" y="774" type="qcurve" smooth="yes"/>
    </contour>
    <contour>
      <point x="170" y="682" type="qcurve" smooth="yes"/>
      <point x="170" y="774" type="line" smooth="yes"/>
      <point x="170" y="1090"/>
      <point x="403" y="1436"/>
      <point x="591" y="1436" type="qcurve" smooth="yes"/>
      <point x="779" y="1436"/>
      <point x="1012" y="1090"/>
      <point x="1012" y="774" type="qcurve" smooth="yes"/>
      <point x="1012" y="682" type="line" smooth="yes"/>
      <point x="1012" y="366"/>
      <point x="779" y="20"/>
      <point x="591" y="20" type="qcurve" smooth="yes"/>
      <point x="403" y="20"/>
      <point x="170" y="366"/>
    </contour>
  </outline>
</glyph>
<glyph name="germandbls" format="1">
  <advance width="948"/>
  <unicode hex="00DF"/>
  <outline>
    <contour>
      <point x="140" y="0" type="line"/>
      <point x="194" y="0" type="line"/>
      <point x="194" y="1110" type="line" smooth="yes"/>
      <point x="194" y="1312"/>
      <point x="308" y="1506"/>
      <point x="408" y="1506" type="qcurve" smooth="yes"/>
      <point x="508" y="1506"/>
      <point x="602" y="1344"/>
      <point x="602" y="1230" type="qcurve" smooth="yes"/>
      <point x="602" y="1168"/>
      <point x="568" y="1070"/>
      <point x="542" y="1029" type="qcurve" smooth="yes"/>
      <point x="514" y="984"/>
      <point x="464" y="888"/>
      <point x="464" y="822" type="qcurve" smooth="yes"/>
      <point x="464" y="730"/>
      <point x="557" y="603"/>
      <point x="616" y="553" type="qcurve" smooth="yes"/>
      <point x="691" y="490"/>
      <point x="813" y="358"/>
      <point x="813" y="268" type="qcurve" smooth="yes"/>
      <point x="813" y="164"/>
      <point x="708" y="30"/>
      <point x="608" y="30" type="qcurve" smooth="yes"/>
      <point x="534" y="30"/>
      <point x="408" y="80"/>
      <point x="374" y="104" type="qcurve"/>
      <point x="344" y="60" type="line"/>
      <point x="382" y="32"/>
      <point x="528" y="-20"/>
      <point x="618" y="-20" type="qcurve" smooth="yes"/>
      <point x="725" y="-20"/>
      <point x="868" y="130"/>
      <point x="868" y="276" type="qcurve" smooth="yes"/>
      <point x="868" y="390"/>
      <point x="713" y="544"/>
      <point x="638" y="607" type="qcurve" smooth="yes"/>
      <point x="586" y="651"/>
      <point x="518" y="753"/>
      <point x="518" y="820" type="qcurve" smooth="yes"/>
      <point x="518" y="869"/>
      <point x="552" y="943"/>
      <point x="575" y="980" type="qcurve" smooth="yes"/>
      <point x="604" y="1027"/>
      <point x="657" y="1144"/>
      <point x="657" y="1240" type="qcurve" smooth="yes"/>
      <point x="657" y="1372"/>
      <point x="528" y="1556"/>
      <point x="408" y="1556" type="qcurve" smooth="yes"/>
      <point x="288" y="1556"/>
      <point x="140" y="1330"/>
      <point x="140" y="1110" type="qcurve" smooth="yes"/>
    </contour>
  </outline>
</glyph>
<glyph name="eth" format="1">
  <advance width="1135"/>
  <unicode hex="00F0"/>
  <outline>
    <contour>
      <point x="80" y="474" type="qcurve" smooth="yes"/>
      <point x="80" y="249"/>
      <point x="346" y="-30"/>
      <point x="546" y="-30" type="qcurve" smooth="yes"/>
      <point x="746" y="-30"/>
      <point x="1015" y="324"/>
      <point x="1015" y="724" type="qcurve" smooth="yes"/>
      <point x="1015" y="804" type="line" smooth="yes"/>
      <point x="1015" y="1204"/>
      <point x="786" y="1556"/>
      <point x="526" y="1556" type="qcurve" smooth="yes"/>
      <point x="396" y="1556"/>
      <point x="190" y="1450"/>
      <point x="130" y="1370" type="qcurve"/>
      <point x="230" y="1250" type="line"/>
      <point x="280" y="1310"/>
      <point x="426" y="1398"/>
      <point x="526" y="1398" type="qcurve" smooth="yes"/>
      <point x="686" y="1398"/>
      <point x="830" y="1154"/>
      <point x="830" y="814" type="qcurve" smooth="yes"/>
      <point x="830" y="714" type="line" smooth="yes"/>
      <point x="830" y="374"/>
      <point x="676" y="128"/>
      <point x="546" y="128" type="qcurve" smooth="yes"/>
      <point x="416" y="128"/>
      <point x="270" y="309"/>
      <point x="270" y="474" type="qcurve" smooth="yes"/>
      <point x="270" y="639"/>
      <point x="416" y="818"/>
      <point x="546" y="818" type="qcurve" smooth="yes"/>
      <point x="660" y="818"/>
      <point x="836" y="639"/>
      <point x="836" y="474" type="qcurve"/>
      <point x="906" y="474" type="line"/>
      <point x="906" y="699"/>
      <point x="688" y="976"/>
      <point x="506" y="976" type="qcurve" smooth="yes"/>
      <point x="316" y="976"/>
      <point x="80" y="699"/>
    </contour>
    <contour>
      <point x="440" y="1190" type="line"/>
      <point x="520" y="1070" type="line"/>
      <point x="1050" y="1430" type="line"/>
      <point x="970" y="1550" type="line"/>
    </contour>
  </outline>
</glyph>
<glyph name="divide" format="1">
  <advance width="1170"/>
  <unicode hex="00F7"/>
  <outline>
    <contour>
      <point x="150" y="647" type="line"/>
      <point x="1020" y="647" type="line"/>
      <point x="1020" y="701" type="line"/>
      <point x="150" y="701" type="line"/>
    </contour>
    <contour>
      <point x="533" y="297" type="qcurve" smooth="yes"/>
      <point x="533" y="266"/>
      <point x="560" y="222"/>
      <point x="585" y="222" type="qcurve" smooth="yes"/>
      <point x="610" y="222"/>
      <point x="637" y="266"/>
      <point x="637" y="297" type="qcurve" smooth="yes"/>
      <point x="637" y="328"/>
      <point x="610" y="372"/>
      <point x="585" y="372" type="qcurve" smooth="yes"/>
      <point x="560" y="372"/>
      <point x="533" y="328"/>
    </contour>
    <contour>
      <point x="533" y="1051" type="qcurve" smooth="yes"/>
      <point x="533" y="1020"/>
      <point x="560" y="976"/>
      <point x="585" y="976" type="qcurve" smooth="yes"/>
      <point x="610" y="976"/>
      <point x="637" y="1020"/>
      <point x="637" y="1051" type="qcurve" smooth="yes"/>
      <point x="637" y="1082"/>
      <point x="610" y="1126"/>
      <point x="585" y="1126" type="qcurve" smooth="yes"/>
      <point x="560" y="1126"/>
      <point x="533" y="1082"/>
    </contour>
  </outline>
</glyph>
<glyph name="oslash" format="1">
  <advance width="1162"/>
  <unicode hex="00F8"/>
  <outline>
    <contour>
      <point x="85" y="509" type="line" smooth="yes"/>
      <point x="85" y="272"/>
      <point x="355" y="-30"/>
      <point x="582" y="-30" type="qcurve" smooth="yes"/>
      <point x="808" y="-30"/>
      <point x="1077" y="272"/>
      <point x="1077" y="509" type="qcurve" smooth="yes"/>
      <point x="1077" y="542" type="line" smooth="yes"/>
      <point x="1077" y="786"/>
      <point x="814" y="1082"/>
      <point x="580" y="1082" type="qcurve" smooth="yes"/>
      <point x="355" y="1082"/>
      <point x="85" y="779"/>
      <point x="85" y="542" type="qcurve" smooth="yes"/>
    </contour>
    <contour>
      <point x="275" y="542" type="line" smooth="yes"/>
      <point x="275" y="704"/>
      <point x="428" y="930"/>
      <point x="580" y="930" type="qcurve" smooth="yes"/>
      <point x="733" y="930"/>
      <point x="887" y="704"/>
      <point x="887" y="542" type="qcurve" smooth="yes"/>
      <point x="887" y="509" type="line" smooth="yes"/>
      <point x="887" y="345"/>
      <point x="733" y="122"/>
      <point x="582" y="122" type="qcurve" smooth="yes"/>
      <point x="428" y="122"/>
      <point x="275" y="345"/>
      <point x="275" y="509" type="qcurve" smooth="yes"/>
    </contour>
    <contour>
      <point x="636" y="513" type="line"/>
      <point x="517" y="571" type="line"/>
      <point x="297" y="148" type="line"/>
      <point x="276" y="125" type="line"/>
      <point x="147" y="-124" type="line"/>
      <point x="310" y="-124" type="line"/>
      <point x="414" y="77" type="line"/>
      <point x="415" y="99" type="line"/>
    </contour>
    <contour>
      <point x="1000" y="1201" type="line"/>
      <point x="837" y="1201" type="line"/>
      <point x="724" y="983" type="line"/>
      <point x="724" y="963" type="line"/>
      <point x="517" y="571" type="line"/>
      <point x="636" y="513" type="line"/>
      <point x="838" y="905" type="line"/>
      <point x="859" y="927" type="line"/>
    </contour>
  </outline>
</glyph>
<glyph name="dotlessi" format="1">
  <advance width="368"/>
  <unicode hex="0131"/>
  <outline>
    <contour>
      <point x="157" y="0" type="line"/>
      <point x="211" y="0" type="line"/>
      <point x="211" y="1052" type="line"/>
      <point x="157" y="1052" type="line"/>
    </contour>
    <contour>
      <point x="184" y="1052" type="move" name="top"/>
    </contour>
  </outline>
</glyph>
<glyph name="OE" format="1">
  <advance width="1615"/>
  <unicode hex="0152"/>
  <outline>
    <contour>
      <point x="115" y="682" type="line" smooth="yes"/>
      <point x="115" y="346"/>
      <point x="382" y="-30"/>
      <point x="591" y="-30" type="qcurve" smooth="yes"/>
      <point x="680" y="-30"/>
      <point x="848" y="36"/>
      <point x="899" y="98" type="qcurve"/>
      <point x="899" y="172" type="line"/>
      <point x="853" y="106"/>
      <point x="696" y="20"/>
      <point x="591" y="20" type="qcurve" smooth="yes"/>
      <point x="401" y="20"/>
      <point x="170" y="373"/>
      <point x="170" y="682" type="qcurve" smooth="yes"/>
      <point x="170" y="774" type="line" smooth="yes"/>
      <point x="170" y="1083"/>
      <point x="401" y="1436"/>
      <point x="591" y="1436" type="qcurve" smooth="yes"/>
      <point x="696" y="1436"/>
      <point x="853" y="1350"/>
      <point x="899" y="1284" type="qcurve"/>
      <point x="899" y="1358" type="line"/>
      <point x="848" y="1420"/>
      <point x="680" y="1486"/>
      <point x="591" y="1486" type="qcurve" smooth="yes"/>
      <point x="382" y="1486"/>
      <point x="115" y="1110"/>
      <point x="115" y="774" type="qcurve" smooth="yes"/>
    </contour>
    <contour>
      <point x="871" y="0" type="line"/>
      <point x="1547" y="0" type="line"/>
      <point x="1547" y="50" type="line"/>
      <point x="925" y="50" type="line"/>
      <point x="925" y="726" type="line"/>
      <point x="1445" y="726" type="line"/>
      <point x="1445" y="776" type="line"/>
      <point x="925" y="776" type="line"/>
      <point x="925" y="1406" type="line"/>
      <point x="1537" y="1406" type="line"/>
      <point x="1537" y="1456" type="line"/>
      <point x="871" y="1456" type="line"/>
    </contour>
  </outline>
</glyph>
<glyph name="oe" format="1">
  <advance width="1782"/>
  <unicode hex="0153"/>
  <outline>
    <contour>
      <point x="85" y="510" type="line" smooth="yes"/>
      <point x="85" y="272"/>
      <point x="350" y="-30"/>
      <point x="571" y="-30" type="qcurve" smooth="yes"/>
      <point x="696" y="-30"/>
      <point x="890" y="79"/>
      <point x="950" y="174" type="qcurve"/>
      <point x="1006" y="80"/>
      <point x="1200" y="-30"/>
      <point x="1333" y="-30" type="qcurve" smooth="yes"/>
      <point x="1475" y="-30"/>
      <point x="1673" y="102"/>
      <point x="1722" y="175" type="qcurve"/>
      <point x="1602" y="270" type="line"/>
      <point x="1559" y="212"/>
      <point x="1427" y="122"/>
      <point x="1333" y="122" type="qcurve" smooth="yes"/>
      <point x="1181" y="122"/>
      <point x="1037" y="347"/>
      <point x="1037" y="510" type="qcurve" smooth="yes"/>
      <point x="1037" y="542" type="line" smooth="yes"/>
      <point x="1037" y="705"/>
      <point x="1173" y="930"/>
      <point x="1303" y="930" type="qcurve" smooth="yes"/>
      <point x="1432" y="930"/>
      <point x="1540" y="760"/>
      <point x="1540" y="632" type="qcurve"/>
      <point x="961" y="632" type="line"/>
      <point x="961" y="484" type="line"/>
      <point x="1730" y="484" type="line"/>
      <point x="1730" y="560" type="line" smooth="yes"/>
      <point x="1730" y="800"/>
      <point x="1508" y="1082"/>
      <point x="1303" y="1082" type="qcurve" smooth="yes"/>
      <point x="1187" y="1082"/>
      <point x="1006" y="972"/>
      <point x="950" y="878" type="qcurve"/>
      <point x="890" y="973"/>
      <point x="696" y="1082"/>
      <point x="571" y="1082" type="qcurve" smooth="yes"/>
      <point x="350" y="1082"/>
      <point x="85" y="780"/>
      <point x="85" y="542" type="qcurve" smooth="yes"/>
    </contour>
    <contour>
      <point x="275" y="510" type="qcurve" smooth="yes"/>
      <point x="275" y="542" type="line" smooth="yes"/>
      <point x="275" y="705"/>
      <point x="424" y="930"/>
      <point x="571" y="930" type="qcurve" smooth="yes"/>
      <point x="718" y="930"/>
      <point x="867" y="705"/>
      <point x="867" y="542" type="qcurve" smooth="yes"/>
      <point x="867" y="510" type="line" smooth="yes"/>
      <point x="867" y="347"/>
      <point x="718" y="122"/>
      <point x="571" y="122" type="qcurve" smooth="yes"/>
      <point x="424" y="122"/>
      <point x="275" y="347"/>
    </contour>
  </outline>
</glyph>
<glyph name="quoteleft" format="1">
  <advance width="332"/>
  <unicode hex="2018"/>
  <outline>
    <contour>
      <point x="120" y="1212" type="line"/>
      <point x="192" y="1212" type="line"/>
      <point x="192" y="1284" type="line" smooth="yes"/>
      <point x="192" y="1338"/>
      <point x="214" y="1420"/>
      <point x="236" y="1458" type="qcurve"/>
      <point x="186" y="1486" type="line"/>
      <point x="154" y="1446"/>
      <point x="120" y="1350"/>
      <point x="120" y="1284" type="qcurve" smooth="yes"/>
    </contour>
  </outline>
</glyph>
<glyph name="quoteright" format="1">
  <advance width="332"/>
  <unicode hex="2019"/>
  <outline>
    <contour>
      <point x="96" y="1210" type="qcurve"/>
      <point x="146" y="1182" type="line"/>
      <point x="178" y="1222"/>
      <point x="212" y="1318"/>
      <point x="212" y="1384" type="qcurve" smooth="yes"/>
      <point x="212" y="1456" type="line"/>
      <point x="140" y="1456" type="line"/>
      <point x="140" y="1384" type="line" smooth="yes"/>
      <point x="140" y="1330"/>
      <point x="118" y="1248"/>
    </contour>
  </outline>
</glyph>
<glyph name="quotedblleft" format="1">
  <advance width="604"/>
  <unicode hex="201C"/>
  <outline>
    <contour>
      <point x="120" y="1212" type="line"/>
      <point x="192" y="1212" type="line"/>
      <point x="192" y="1284" type="line" smooth="yes"/>
      <point x="192" y="1338"/>
      <point x="214" y="1420"/>
      <point x="236" y="1458" type="qcurve"/>
      <point x="186" y="1486" type="line"/>
      <point x="154" y="1446"/>
      <point x="120" y="1350"/>
      <point x="120" y="1284" type="qcurve" smooth="yes"/>
    </contour>
    <contour>
      <point x="392" y="1212" type="line"/>
      <point x="464" y="1212" type="line"/>
      <point x="464" y="1284" type="line" smooth="yes"/>
      <point x="464" y="1338"/>
      <point x="486" y="1420"/>
      <point x="508" y="1458" type="qcurve"/>
      <point x="458" y="1486" type="line"/>
      <point x="426" y="1446"/>
      <point x="392" y="1350"/>
      <point x="392" y="1284" type="qcurve" smooth="yes"/>
    </contour>
  </outline>
</glyph>
<glyph name="quotedblbase" format="1">
  <advance width="604"/>
  <unicode hex="201E"/>
  <outline>
    <contour>
      <point x="96" y="-114" type="qcurve"/>
      <point x="146" y="-142" type="line"/>
      <point x="178" y="-102"/>
      <point x="212" y="-6"/>
      <point x="212" y="60" type="qcurve" smooth="yes"/>
      <point x="212" y="132" type="line"/>
      <point x="140" y="132" type="line"/>
      <point x="140" y="60" type="line" smooth="yes"/>
      <point x="140" y="6"/>
      <point x="118" y="-76"/>
    </contour>
    <contour>
      <point x="368" y="-114" type="qcurve"/>
      <point x="418" y="-142" type="line"/>
      <point x="450" y="-102"/>
      <point x="484" y="-6"/>
      <point x="484" y="60" type="qcurve" smooth="yes"/>
      <point x="484" y="132" type="line"/>
      <point x="412" y="132" type="line"/>
      <point x="412" y="60" type="line" smooth="yes"/>
      <point x="412" y="6"/>
      <point x="390" y="-76"/>
    </contour>
  </outline>
</glyph>
<glyph name="bullet" format="1">
  <advance width="528"/>
  <unicode hex="2022"/>
  <outline>
    <contour>
      <point x="164" y="742" type="line" smooth="yes"/>
      <point x="164" y="690"/>
      <point x="220" y="624"/>
      <point x="264" y="624" type="qcurve" smooth="yes"/>
      <point x="308" y="624"/>
      <point x="364" y="690"/>
      <point x="364" y="742" type="qcurve" smooth="yes"/>
      <point x="364" y="766" type="line" smooth="yes"/>
      <point x="364" y="818"/>
      <point x="308" y="884"/>
      <point x="264" y="884" type="qcurve" smooth="yes"/>
      <point x="220" y="884"/>
      <point x="164" y="818"/>
      <point x="164" y="766" type="qcurve" smooth="yes"/>
    </contour>
  </outline>
</glyph>
<glyph name="ellipsis" format="1">
  <advance width="1272"/>
  <unicode hex="2026"/>
  <outline>
    <contour>
      <point x="160" y="53" type="qcurve" smooth="yes"/>
      <point x="160" y="22"/>
      <point x="187" y="-22"/>
      <point x="212" y="-22" type="qcurve" smooth="yes"/>
      <point x="237" y="-22"/>
      <point x="264" y="22"/>
      <point x="264" y="53" type="qcurve" smooth="yes"/>
      <point x="264" y="84"/>
      <point x="237" y="128"/>
      <point x="212" y="128" type="qcurve" smooth="yes"/>
      <point x="187" y="128"/>
      <point x="160" y="84"/>
    </contour>
    <contour>
      <point x="584" y="53" type="qcurve" smooth="yes"/>
      <point x="584" y="22"/>
      <point x="611" y="-22"/>
      <point x="636" y="-22" type="qcurve" smooth="yes"/>
      <point x="661" y="-22"/>
      <point x="688" y="22"/>
      <point x="688" y="53" type="qcurve" smooth="yes"/>
      <point x="688" y="84"/>
      <point x="661" y="128"/>
      <point x="636" y="128" type="qcurve" smooth="yes"/>
      <point x="611" y="128"/>
      <point x="584" y="84"/>
    </contour>
    <contour>
      <point x="1008" y="53" type="qcurve" smooth="yes"/>
      <point x="1008" y="22"/>
      <point x="1035" y="-22"/>
      <point x="1060" y="-22" type="qcurve" smooth="yes"/>
      <point x="1085" y="-22"/>
      <point x="1112" y="22"/>
      <point x="1112" y="53" type="qcurve" smooth="yes"/>
      <point x="1112" y="84"/>
      <point x="1085" y="128"/>
      <point x="1060" y="128" type="qcurve" smooth="yes"/>
      <point x="1035" y="128"/>
      <point x="1008" y="84"/>
    </contour>
  </outline>
</glyph>
<glyph name="fraction" format="1">
  <advance width="1031"/>
  <unicode hex="2044"/>
  <outline>
    <contour>
      <point x="30" y="-2" type="line"/>
      <point x="72" y="-30" type="line"/>
      <point x="1001" y="1458" type="line"/>
      <point x="959" y="1486" type="line"/>
    </contour>
  </outline>
</glyph>
<glyph name="Euro" format="1">
  <advance width="882"/>
  <unicode hex="20AC"/>
  <outline>
    <contour>
      <point x="170" y="642" type="line" smooth="yes"/>
      <point x="170" y="316"/>
      <point x="368" y="-30"/>
      <point x="544" y="-30" type="qcurve" smooth="yes"/>
      <point x="696" y="-30"/>
      <point x="852" y="219"/>
      <point x="852" y="396" type="qcurve" smooth="yes"/>
      <point x="852" y="406" type="line"/>
      <point x="800" y="406" type="line"/>
      <point x="800" y="396" type="line" smooth="yes"/>
      <point x="800" y="238"/>
      <point x="684" y="20"/>
      <point x="544" y="20" type="qcurve" smooth="yes"/>
      <point x="394" y="20"/>
      <point x="224" y="316"/>
      <point x="224" y="642" type="qcurve" smooth="yes"/>
      <point x="224" y="814" type="line" smooth="yes"/>
      <point x="224" y="1140"/>
      <point x="394" y="1436"/>
      <point x="544" y="1436" type="qcurve" smooth="yes"/>
      <point x="684" y="1436"/>
      <point x="800" y="1218"/>
      <point x="800" y="1060" type="qcurve" smooth="yes"/>
      <point x="800" y="1050" type="line"/>
      <point x="852" y="1050" type="line"/>
      <point x="852" y="1060" type="line" smooth="yes"/>
      <point x="852" y="1237"/>
      <point x="696" y="1486"/>
      <point x="544" y="1486" type="qcurve" smooth="yes"/>
      <point x="368" y="1486"/>
      <point x="170" y="1140"/>
      <point x="170" y="814" type="qcurve" smooth="yes"/>
    </contour>
    <contour>
      <point x="30" y="592" type="line"/>
      <point x="724" y="592" type="line"/>
      <point x="724" y="642" type="line"/>
      <point x="30" y="642" type="line"/>
    </contour>
    <contour>
      <point x="30" y="814" type="line"/>
      <point x="724" y="814" type="line"/>
      <point x="724" y="864" type="line"/>
      <point x="30" y="864" type="line"/>
    </contour>
  </outline>
</glyph>
<glyph name="indianrupee" format="1">
  <advance width="1156"/>
  <unicode hex="20B9"/>
  <outline>
    <contour>
      <point x="140" y="594" type="line"/>
      <point x="720" y="0" type="line"/>
      <point x="960" y="0" type="line"/>
      <point x="380" y="594" type="line"/>
      <point x="424" y="594" type="line" smooth="yes"/>
      <point x="658" y="594"/>
      <point x="910" y="834"/>
      <point x="910" y="1028" type="qcurve" smooth="yes"/>
      <point x="910" y="1108"/>
      <point x="860" y="1250"/>
      <point x="800" y="1300" type="qcurve"/>
      <point x="1060" y="1300" type="line"/>
      <point x="1100" y="1456" type="line"/>
      <point x="120" y="1456" type="line"/>
      <point x="80" y="1300" type="line"/>
      <point x="424" y="1300" type="line" smooth="yes"/>
      <point x="590" y="1300"/>
      <point x="720" y="1144"/>
      <point x="720" y="1028" type="qcurve" smooth="yes"/>
      <point x="720" y="912"/>
      <point x="590" y="750"/>
      <point x="424" y="750" type="qcurve" smooth="yes"/>
      <point x="180" y="750" type="line"/>
    </contour>
    <contour>
      <point x="120" y="940" type="line"/>
      <point x="1060" y="940" type="line"/>
      <point x="1100" y="1096" type="line"/>
      <point x="160" y="1096" type="line"/>
    </contour>
  </outline>
</glyph>
<glyph name="numero" format="1">
  <advance width="2480"/>
  <unicode hex="2116"/>
  <outline>
    <contour>
      <point x="170" y="0" type="line"/>
      <point x="358" y="0" type="line"/>
      <point x="358" y="990" type="line" smooth="yes"/>
      <point x="358" y="1020"/>
      <point x="354" y="1095"/>
      <point x="350" y="1125" type="qcurve"/>
      <point x="360" y="1125" type="line"/>
      <point x="374" y="1100"/>
      <point x="409" y="1041"/>
      <point x="428" y="1010" type="qcurve" smooth="yes"/>
      <point x="1040" y="0" type="line"/>
      <point x="1240" y="0" type="line"/>
      <point x="1240" y="1456" type="line"/>
      <point x="1052" y="1456" type="line"/>
      <point x="1052" y="466" type="line" smooth="yes"/>
      <point x="1052" y="436"/>
      <point x="1056" y="361"/>
      <point x="1060" y="331" type="qcurve"/>
      <point x="1050" y="331" type="line"/>
      <point x="1036" y="356"/>
      <point x="1000" y="416"/>
      <point x="982" y="446" type="qcurve" smooth="yes"/>
      <point x="370" y="1456" type="line"/>
      <point x="170" y="1456" type="line"/>
    </contour>
    <contour>
      <point x="1440" y="130" type="line"/>
      <point x="1440" y="295" type="line"/>
      <point x="2320" y="295" type="line"/>
      <point x="2320" y="130" type="line"/>
    </contour>
    <contour>
      <point x="1400" y="964" type="qcurve" smooth="yes"/>
      <point x="1400" y="984" type="line" smooth="yes"/>
      <point x="1400" y="1194"/>
      <point x="1655" y="1476"/>
      <point x="1880" y="1476" type="qcurve" smooth="yes"/>
      <point x="2105" y="1476"/>
      <point x="2360" y="1194"/>
      <point x="2360" y="984" type="qcurve" smooth="yes"/>
      <point x="2360" y="964" type="line" smooth="yes"/>
      <point x="2360" y="754"/>
      <point x="2105" y="472"/>
      <point x="1880" y="472" type="qcurve" smooth="yes"/>
      <point x="1655" y="472"/>
      <point x="1400" y="754"/>
    </contour>
    <contour>
      <point x="1580" y="964" type="line" smooth="yes"/>
      <point x="1580" y="814"/>
      <point x="1730" y="624"/>
      <point x="1880" y="624" type="qcurve" smooth="yes"/>
      <point x="2030" y="624"/>
      <point x="2180" y="814"/>
      <point x="2180" y="964" type="qcurve" smooth="yes"/>
      <point x="2180" y="984" type="line" smooth="yes"/>
      <point x="2180" y="1134"/>
      <point x="2030" y="1324"/>
      <point x="1880" y="1324" type="qcurve" smooth="yes"/>
      <point x="1730" y="1324"/>
      <point x="1580" y="1134"/>
      <point x="1580" y="984" type="qcurve" smooth="yes"/>
    </contour>
  </outline>
</glyph>
<glyph name="trademark" format="1">
  <advance width="1596"/>
  <unicode hex="2122"/>
  <outline>
    <contour>
      <point x="276" y="820" type="line"/>
      <point x="434" y="820" type="line"/>
      <point x="434" y="1316" type="line"/>
      <point x="640" y="1316" type="line"/>
      <point x="640" y="1456" type="line"/>
      <point x="70" y="1456" type="line"/>
      <point x="70" y="1316" type="line"/>
      <point x="276" y="1316" type="line"/>
    </contour>
    <contour>
      <point x="710" y="820" type="line"/>
      <point x="840" y="820" type="line"/>
      <point x="840" y="1290" type="line"/>
      <point x="1022" y="820" type="line"/>
      <point x="1164" y="820" type="line"/>
      <point x="1346" y="1290" type="line"/>
      <point x="1346" y="820" type="line"/>
      <point x="1486" y="820" type="line"/>
      <point x="1486" y="1456" type="line"/>
      <point x="1278" y="1456" type="line"/>
      <point x="1098" y="985" type="line"/>
      <point x="918" y="1456" type="line"/>
      <point x="710" y="1456" type="line"/>
    </contour>
  </outline>
</glyph>
<glyph name="fi" format="1">
  <advance width="866"/>
  <unicode hex="FB01"/>
  <outline>
    <contour>
      <point x="196" y="0" type="line"/>
      <point x="250" y="0" type="line"/>
      <point x="250" y="1022" type="line"/>
      <point x="250" y="1032" type="line"/>
      <point x="250" y="1200" type="line" smooth="yes"/>
      <point x="250" y="1355"/>
      <point x="358" y="1510"/>
      <point x="468" y="1510" type="qcurve" smooth="yes"/>
      <point x="516" y="1510"/>
      <point x="602" y="1486"/>
      <point x="640" y="1470" type="qcurve"/>
      <point x="658" y="1510" type="line"/>
      <point x="614" y="1530"/>
      <point x="518" y="1556"/>
      <point x="468" y="1556" type="qcurve" smooth="yes"/>
      <point x="340" y="1556"/>
      <point x="196" y="1374"/>
      <point x="196" y="1200" type="qcurve" smooth="yes"/>
    </contour>
    <contour>
      <point x="25" y="1002" type="line"/>
      <point x="498" y="1002" type="line"/>
      <point x="498" y="1052" type="line"/>
      <point x="228" y="1052" type="line"/>
      <point x="218" y="1052" type="line"/>
      <point x="25" y="1052" type="line"/>
    </contour>
    <contour>
      <point x="655" y="0" type="line"/>
      <point x="709" y="0" type="line"/>
      <point x="709" y="1052" type="line"/>
      <point x="655" y="1052" type="line"/>
    </contour>
  </outline>
</glyph>
<glyph name="f_f_l" format="1">
  <advance width="1353"/>
  <unicode hex="FB04"/>
  <outline>
    <contour>
      <point x="196" y="0" type="line"/>
      <point x="250" y="0" type="line"/>
      <point x="250" y="1022" type="line"/>
      <point x="250" y="1032" type="line"/>
      <point x="250" y="1200" type="line" smooth="yes"/>
      <point x="250" y="1355"/>
      <point x="358" y="1510"/>
      <point x="468" y="1510" type="qcurve" smooth="yes"/>
      <point x="516" y="1510"/>
      <point x="602" y="1486"/>
      <point x="640" y="1470" type="qcurve"/>
      <point x="658" y="1510" type="line"/>
      <point x="614" y="1530"/>
      <point x="518" y="1556"/>
      <point x="468" y="1556" type="qcurve" smooth="yes"/>
      <point x="340" y="1556"/>
      <point x="196" y="1374"/>
      <point x="196" y="1200" type="qcurve" smooth="yes"/>
    </contour>
    <contour>
      <point x="25" y="1002" type="line"/>
      <point x="498" y="1002" type="line"/>
      <point x="498" y="1052" type="line"/>
      <point x="228" y="1052" type="line"/>
      <point x="218" y="1052" type="line"/>
      <point x="25" y="1052" type="line"/>
    </contour>
    <contour>
      <point x="654" y="0" type="line"/>
      <point x="708" y="0" type="line"/>
      <point x="708" y="1022" type="line"/>
      <point x="708" y="1032" type="line"/>
      <point x="708" y="1200" type="line" smooth="yes"/>
      <point x="708" y="1355"/>
      <point x="816" y="1510"/>
      <point x="926" y="1510" type="qcurve" smooth="yes"/>
      <point x="998" y="1510"/>
      <point x="1128" y="1474"/>
      <point x="1176" y="1452" type="qcurve"/>
      <point x="1196" y="1496" type="line"/>
      <point x="1138" y="1520"/>
      <point x="998" y="1556"/>
      <point x="926" y="1556" type="qcurve" smooth="yes"/>
      <point x="798" y="1556"/>
      <point x="654" y="1374"/>
      <point x="654" y="1200" type="qcurve" smooth="yes"/>
    </contour>
    <contour>
      <point x="483" y="1002" type="line"/>
      <point x="956" y="1002" type="line"/>
      <point x="956" y="1052" type="line"/>
      <point x="686" y="1052" type="line"/>
      <point x="676" y="1052" type="line"/>
      <point x="483" y="1052" type="line"/>
    </contour>
    <contour>
      <point x="1142" y="0" type="line"/>
      <point x="1196" y="0" type="line"/>
      <point x="1196" y="1496" type="line"/>
      <point x="1142" y="1496" type="line"/>
    </contour>
  </outline>
</glyph>
<glyph name="bitcoin" format="1">
  <advance width="1210"/>
  <outline>
    <contour>
      <point x="170" y="0" type="line"/>
      <point x="630" y="0" type="line" smooth="yes"/>
      <point x="847" y="0"/>
      <point x="1110" y="220"/>
      <point x="1110" y="420" type="qcurve" smooth="yes"/>
      <point x="1110" y="560"/>
      <point x="970" y="732"/>
      <point x="860" y="764" type="qcurve"/>
      <point x="860" y="768" type="line"/>
      <point x="950" y="800"/>
      <point x="1072" y="950"/>
      <point x="1072" y="1070" type="qcurve" smooth="yes"/>
      <point x="1072" y="1270"/>
      <point x="820" y="1456"/>
      <point x="600" y="1456" type="qcurve" smooth="yes"/>
      <point x="170" y="1456" type="line"/>
    </contour>
    <contour>
      <point x="358" y="158" type="line"/>
      <point x="358" y="680" type="line"/>
      <point x="630" y="680" type="line" smooth="yes"/>
      <point x="780" y="680"/>
      <point x="920" y="540"/>
      <point x="920" y="420" type="qcurve" smooth="yes"/>
      <point x="920" y="300"/>
      <point x="780" y="158"/>
      <point x="630" y="158" type="qcurve" smooth="yes"/>
    </contour>
    <contour>
      <point x="358" y="836" type="line"/>
      <point x="358" y="1298" type="line"/>
      <point x="600" y="1298" type="line" smooth="yes"/>
      <point x="750" y="1298"/>
      <point x="882" y="1180"/>
      <point x="882" y="1070" type="qcurve" smooth="yes"/>
      <point x="882" y="960"/>
      <point x="750" y="836"/>
      <point x="600" y="836" type="qcurve" smooth="yes"/>
    </contour>
    <contour>
      <point x="40" y="366" type="line"/>
      <point x="262" y="366" type="line"/>
      <point x="266" y="370" type="line"/>
      <point x="638" y="370" type="line"/>
      <point x="638" y="518" type="line"/>
      <point x="266" y="518" type="line"/>
      <point x="262" y="522" type="line"/>
      <point x="40" y="522" type="line"/>
    </contour>
  </outline>
</glyph>
<glyph name="one.pnum" format="1">
  <advance width="1156"/>
  <outline>
    <contour>
      <point x="610" y="0" type="line"/>
      <point x="664" y="0" type="line"/>
      <point x="664" y="1476" type="line"/>
      <point x="634" y="1476" type="line"/>
      <point x="242" y="1325" type="line"/>
      <point x="242" y="1270" type="line"/>
      <point x="610" y="1415" type="line"/>
    </contour>
  </outline>
</glyph>
<glyph name="three.pnum" format="1">
  <advance width="1156"/>
  <outline>
    <contour>
      <point x="212" y="380" type="line" smooth="yes"/>
      <point x="212" y="200"/>
      <point x="406" y="-30"/>
      <point x="558" y="-30" type="qcurve" smooth="yes"/>
      <point x="710" y="-30"/>
      <point x="903" y="200"/>
      <point x="903" y="400" type="qcurve" smooth="yes"/>
      <point x="903" y="540"/>
      <point x="762" y="728"/>
      <point x="650" y="758" type="qcurve"/>
      <point x="650" y="762" type="line"/>
      <point x="760" y="814"/>
      <point x="852" y="990"/>
      <point x="852" y="1100" type="qcurve" smooth="yes"/>
      <point x="852" y="1270"/>
      <point x="691" y="1486"/>
      <point x="558" y="1486" type="qcurve" smooth="yes"/>
      <point x="425" y="1486"/>
      <point x="252" y="1270"/>
      <point x="252" y="1100" type="qcurve" smooth="yes"/>
      <point x="252" y="1090" type="line"/>
      <point x="306" y="1090" type="line"/>
      <point x="306" y="1100" type="line" smooth="yes"/>
      <point x="306" y="1260"/>
      <point x="450" y="1436"/>
      <point x="558" y="1436" type="qcurve" smooth="yes"/>
      <point x="666" y="1436"/>
      <point x="798" y="1260"/>
      <point x="798" y="1100" type="qcurve" smooth="yes"/>
      <point x="798" y="960"/>
      <point x="650" y="786"/>
      <point x="510" y="786" type="qcurve" smooth="yes"/>
      <point x="405" y="786" type="line"/>
      <point x="405" y="732" type="line"/>
      <point x="520" y="732" type="line" smooth="yes"/>
      <point x="660" y="732"/>
      <point x="848" y="560"/>
      <point x="848" y="400" type="qcurve" smooth="yes"/>
      <point x="848" y="210"/>
      <point x="690" y="20"/>
      <point x="558" y="20" type="qcurve" smooth="yes"/>
      <point x="426.0" y="20.0"/>
      <point x="266" y="210"/>
      <point x="266" y="380" type="qcurve" smooth="yes"/>
      <point x="266" y="390" type="line"/>
      <point x="212" y="390" type="line"/>
    </contour>
  </outline>
</glyph>
